<svg xmlns="http://www.w3.org/2000/svg" width="62.978" height="62.928" viewBox="0 0 62.978 62.928">
  <g id="Bilibili-Logo--Streamline-Ultimate.svg" transform="translate(0 -0.005)">
    <path id="Path_271" data-name="Path 271" d="M51.17,9.176H44.924l2.467-2.467a3.91,3.91,0,0,0,0-5.563,3.962,3.962,0,0,0-5.563,0L33.8,9.176H29.18l-8.03-8.03a3.962,3.962,0,0,0-5.563,0,3.91,3.91,0,0,0,0,5.563l2.467,2.467H11.808A11.835,11.835,0,0,0,0,20.984V47.225A11.835,11.835,0,0,0,11.808,59.033H13.12a4.592,4.592,0,0,0,9.079,0H40.568a4.592,4.592,0,0,0,9.079,0h1.365A11.835,11.835,0,0,0,62.978,47.225V20.984A11.835,11.835,0,0,0,51.17,9.176Zm3.936,38.049a3.936,3.936,0,0,1-3.936,3.936H11.808a3.936,3.936,0,0,1-3.936-3.936V20.984a3.936,3.936,0,0,1,3.936-3.936H51.17a3.936,3.936,0,0,1,3.936,3.936Z" transform="translate(0 0)"/>
    <path id="Path_272" data-name="Path 272" d="M25.638,16.464a1.916,1.916,0,0,0-2.283,1.5,1.417,1.417,0,0,1-.892.21c-1.706,0-2.624-2.624-2.624-2.624a1.974,1.974,0,0,0-3.7,0s-1.05,2.624-2.755,2.624c-.6,0-.84-.157-.84,0a2.06,2.06,0,1,0-4.067.656,4.435,4.435,0,0,0,4.7,3.254,6.167,6.167,0,0,0,4.592-2.152,6.167,6.167,0,0,0,4.592,2.178,4.435,4.435,0,0,0,4.7-3.28,2.021,2.021,0,0,0-1.417-2.362Z" transform="translate(13.723 23.151)"/>
    <path id="Path_273" data-name="Path 273" d="M18.572,11.618A1.942,1.942,0,0,0,16.263,10.1L5.924,12.2a1.968,1.968,0,0,0-1.548,2.335,2.021,2.021,0,0,0,1.942,1.574h.394l10.339-2.1a1.994,1.994,0,0,0,1.522-2.388Z" transform="translate(7.039 16.319)"/>
    <path id="Path_274" data-name="Path 274" d="M26.912,12.2,16.573,10.1a1.942,1.942,0,0,0-2.309,1.522,1.994,1.994,0,0,0,1.522,2.335l10.339,2.1h.394a2.021,2.021,0,0,0,1.942-1.574A1.968,1.968,0,0,0,26.912,12.2Z" transform="translate(23.103 16.319)"/>
  </g>
</svg>
