<?xml version="1.0" encoding="UTF-8"?>
<svg id="Layer_2" data-name="Layer 2" xmlns="http://www.w3.org/2000/svg" viewBox="0 0 92.77 21.46">
  <g id="_图层_1" data-name="图层 1">
    <g>
      <g>
        <path d="M21.09,21.03H.12v-1.41h2.19v-6.09h16.74v6.09h2.03v1.41ZM19.37,12.28l-5.79-3.28c-1.41-1.25-1.25-3.91-1.25-5.47H3.88v2.19h5.79v5.78h-4.22v-1.56h2.66v-2.66H3.88c-.31,2.03-.78,3.28-1.56,4.84H.75c1.88-3.75,1.72-5.63,1.72-10h9.86V.25h1.41v1.88h4.22V.25h1.56v3.28h-5.79c0,1.25-.16,3.59.94,4.53l4.69,2.5v1.72ZM17.49,14.93h-3.75v4.69h3.75v-4.69ZM3.72,14.93v4.69h3.6v-4.69h-3.6ZM8.73,19.62h3.6v-4.69h-3.6v4.69Z" fill="#231f20"/>
        <path d="M21.21,21.15H0v-1.66h2.19v-6.09h16.99v6.09h2.03v1.66ZM.25,20.9h20.71v-1.16h-2.03v-6.09H2.44v6.09H.25v1.16ZM17.61,19.75h-4v-4.94h4v4.94ZM13.86,19.5h3.5v-4.44h-3.5v4.44ZM12.45,19.75h-3.85v-4.94h3.85v4.94ZM8.85,19.5h3.35v-4.44h-3.35v4.44ZM7.45,19.75h-3.85v-4.94h3.85v4.94ZM3.85,19.5h3.35v-4.44h-3.35v4.44ZM19.49,12.49l-5.97-3.39c-1.35-1.19-1.33-3.57-1.32-5.15,0-.1,0-.21,0-.3H4v1.94h5.79v6.03h-4.47v-1.81h2.66v-2.41h-3.99c-.32,2.03-.82,3.29-1.56,4.77l-.03.07H.55l.09-.18c1.72-3.44,1.72-5.3,1.71-9.01v-1.06s9.85,0,9.85,0V.12h1.66v1.88h3.97V.12h1.81v3.53h-5.79c0,.09,0,.19,0,.3-.02,1.28-.04,3.21.9,4.01l4.74,2.52v2.01ZM3.75,3.4h8.7v.12c0,.14,0,.28,0,.43-.01,1.53-.03,3.84,1.21,4.95l5.58,3.16v-1.43l-4.63-2.46c-1.05-.89-1.02-2.9-1.01-4.22,0-.15,0-.29,0-.42v-.12h5.79V.37h-1.31v1.88h-4.47V.37h-1.16v1.88H2.6v.81c.01,3.68.02,5.56-1.64,8.94h1.29c.72-1.45,1.21-2.71,1.52-4.74l.02-.11h4.46v2.91h-2.66v1.31h3.97v-5.53H3.75v-2.44Z" fill="#231f20"/>
      </g>
      <g>
        <path d="M28.17,21.03h-1.38v-8.45c0-2.31.31-2.31-1.69-2.31h-2.31L28.63.43h1.69l-5.08,8.3c3.39,0,2.92.46,2.92,3.69v8.61Z" fill="#231f20"/>
        <path d="M28.29,21.15h-1.64v-8.58c0-.31,0-.58.01-.81.01-.67.02-1.04-.13-1.2-.17-.17-.62-.17-1.45-.17h-2.53L28.56.31h1.99l-5.08,8.3c1.32,0,2.07.1,2.47.5.41.41.39,1.12.37,2.28,0,.31-.01.65-.01,1.03v8.73ZM26.91,20.9h1.14v-8.48c0-.38,0-.72.01-1.03.02-1.1.03-1.77-.3-2.11-.35-.36-1.15-.43-2.51-.43h-.22L30.1.56h-1.4l-5.7,9.59h2.09c.95,0,1.38,0,1.62.25.23.23.22.62.2,1.38,0,.23-.01.5-.01.8v8.33Z" fill="#231f20"/>
      </g>
      <g>
        <polygon points="44.78 20.88 29.4 20.88 42.17 3.35 31.4 3.35 31.4 1.82 44.94 1.82 32.17 19.49 44.78 19.49 44.78 20.88" fill="#231f20"/>
        <path d="M44.91,21h-15.76l.14-.2L41.92,3.48h-10.65v-1.79h13.91l-12.77,17.68h12.5v1.63ZM29.64,20.75h15.02v-1.13h-12.74L44.69,1.94h-13.17v1.29h10.89l-.14.2-12.63,17.32Z" fill="#231f20"/>
      </g>
      <g>
        <polygon points="56.32 21.03 56.32 19.49 58.02 19.49 58.02 12.58 59.71 12.58 59.56 20.88 56.32 21.03" fill="#231f20"/>
        <path d="M56.2,21.16v-1.79h1.69v-6.92h1.94l-.16,8.54-3.48.17ZM56.45,19.62v1.28l2.98-.14.15-8.06h-1.44v6.92h-1.69Z" fill="#231f20"/>
      </g>
      <g>
        <path d="M58.94,11.19c-1.23,0-2.31.46-4,1.38-1.54.77-3.39,1.84-6,3.23v-1.69c5.54-2.92,8-4.46,10-4.46s4.31,1.54,9.85,4.46v1.69c-2.46-1.38-4.31-2.31-5.69-3.07-1.85-.92-3.08-1.54-4.15-1.54h0Z" fill="#231f20"/>
        <path d="M68.91,16.02l-.19-.1c-1.48-.83-2.71-1.48-3.8-2.06-.72-.38-1.34-.71-1.9-1.02-1.83-.91-3.05-1.52-4.09-1.52-1.21,0-2.28.46-3.94,1.37-.84.42-1.79.94-2.88,1.54-.91.5-1.94,1.06-3.12,1.69l-.18.1v-1.97l.07-.04c.94-.5,1.79-.95,2.57-1.37,3.86-2.07,5.8-3.1,7.49-3.1s3.35.94,6.81,2.81c.91.49,1.93,1.04,3.09,1.66l.07.04v1.98ZM49.06,14.19v1.41c1.11-.59,2.08-1.12,2.94-1.59,1.09-.6,2.04-1.12,2.88-1.54,1.7-.93,2.79-1.4,4.06-1.4,1.11,0,2.34.62,4.21,1.55.56.31,1.18.64,1.9,1.02,1.04.55,2.22,1.17,3.61,1.95v-1.4c-1.14-.6-2.14-1.14-3.03-1.62-3.43-1.85-5.15-2.78-6.69-2.78-1.63,0-3.55,1.03-7.37,3.07-.76.41-1.59.85-2.5,1.33Z" fill="#231f20"/>
      </g>
      <g>
        <polygon points="61.71 8.73 60.02 8.58 62.63 3.35 59.25 3.35 59.25 .43 60.94 .43 60.94 1.82 68.48 1.82 68.48 9.35 64.63 9.35 64.63 7.81 67.1 7.81 66.94 7.5 66.94 3.35 64.33 3.35 61.71 8.73" fill="#231f20"/>
        <path d="M68.61,9.47h-4.1v-1.79h2.38l-.08-.18V3.48h-2.41l-2.62,5.39-1.96-.18,2.61-5.21h-3.31V.31h1.94v1.38h7.54v7.78ZM64.76,9.22h3.6V1.94h-7.54V.56h-1.44v2.67h3.46l-2.62,5.24,1.42.13,2.61-5.37h2.82v4.25l.23.46h-2.54v1.29Z" fill="#231f20"/>
      </g>
      <g>
        <polygon points="57.71 5.04 54.32 5.04 57.71 7.66 57.71 9.35 53.86 6.43 53.86 9.65 52.32 9.65 52.32 6.58 48.78 9.35 48.78 7.5 51.86 5.04 48.78 5.04 48.78 3.66 52.32 3.66 52.32 1.97 49.09 2.12 48.94 .59 57.25 .43 57.25 1.82 53.86 1.97 53.86 3.66 57.71 3.66 57.71 5.04" fill="#231f20"/>
        <path d="M53.99,9.78h-1.79v-2.94l-3.54,2.77v-2.16l2.85-2.27h-2.85v-1.63h3.54v-1.44l-3.22.15-.18-1.79,8.57-.16v1.63l-3.39.15v1.45h3.85v1.63h-3.14l3.14,2.43v2l-3.85-2.92v3.1ZM52.45,9.53h1.29v-3.36l3.85,2.92v-1.38l-3.63-2.8h3.63v-1.13h-3.85v-1.94l3.39-.15V.56l-8.05.15.13,1.28,3.24-.15v1.95h-3.54v1.13h3.31l-3.31,2.64v1.53l3.54-2.77v3.21Z" fill="#231f20"/>
      </g>
      <g>
        <polygon points="82.64 9.65 81.87 9.65 81.87 4.74 72.79 9.35 72.64 7.81 81.41 3.35 72.79 3.35 72.79 1.97 81.87 1.97 81.87 .12 82.64 .12 83.41 .12 83.41 1.97 92.64 1.97 92.64 3.35 84.02 3.35 92.64 7.81 92.64 9.35 83.41 4.74 83.41 9.65 82.64 9.65" fill="#231f20"/>
        <path d="M83.53,9.78h-1.79v-4.84l-9.06,4.6-.18-1.8,8.38-4.26h-8.22v-1.63h9.08V0h1.79v1.84h9.23v1.63h-8.23l8.23,4.26v1.82l-9.23-4.61v4.84ZM81.99,9.53h1.29v-5l9.23,4.61v-1.26l-9.01-4.66h9.01v-1.13h-9.23V.25h-1.29v1.84h-9.08v1.13h9.01l-9.16,4.66.13,1.27,9.1-4.62v5Z" fill="#231f20"/>
      </g>
      <g>
        <path d="M92.49,13.04h-4l4.15,5.38v2.46l-4-5.07v5.53h-1.54v-5.84l-2.92,3.54c-1.38,1.38-1.54,1.69-2.92,0l-3.23-3.54v5.84h-1.38v-5.69l-3.85,5.07-.15-2.31,4.15-5.38h-4v-1.38h3.85v-2.61h1.38v2.61h4.15v1.38h-4.31l4,4.61c.77.92.62.92,1.54,0l3.85-4.61h-4.15v-1.38h4v-2.61h1.54v2.61h3.85v1.38Z" fill="#231f20"/>
        <path d="M88.76,21.46h-1.79v-5.62l-2.7,3.27-.2.2c-.62.63-1,1-1.42,1s-.85-.4-1.5-1.2l-3.01-3.29v5.64h-1.63v-5.44l-3.82,5.04-.18-2.69.03-.04,4-5.18h-3.87v-1.63h3.85v-2.61h1.63v2.61h4.15v1.63h-4.16l4,4.62c.21.26.35.43.44.43.09,0,.26-.18.53-.44l.21-.21,3.67-4.4h-4.01v-1.63h4v-2.61h1.79v2.61h3.85v1.63h-3.87l4.03,5.21v2.86l-4-5.07v5.3ZM87.23,21.21h1.29v-5.77l4,5.07v-2.06l-4.28-5.55h4.13v-1.13h-3.85v-2.61h-1.29v2.61h-4v1.13h4.3l-4.02,4.82-.22.22c-.35.35-.51.52-.7.52s-.35-.18-.63-.52l-.18-.21-4.18-4.82h4.46v-1.13h-4.15v-2.61h-1.13v2.61h-3.85v1.13h4.13l-4.28,5.54.13,1.92,3.87-5.1v5.93h1.13v-6.04l3.45,3.77c.68.82,1.02,1.12,1.31,1.12.32,0,.66-.35,1.24-.93l.19-.19,3.14-3.79v6.06Z" fill="#231f20"/>
      </g>
      <g>
        <polygon points="63.86 17.03 68.64 21.03 66.17 21.03 61.4 17.03 64.63 14.27 66.17 15.03 63.86 17.03" fill="#231f20"/>
        <path d="M68.98,21.15h-2.85l-.03-.03-4.88-4.09,3.41-2.92,1.78.89-2.34,2.03,4.92,4.12ZM66.22,20.9h2.07l-4.62-3.87,2.28-1.97-1.3-.65-3.06,2.62,4.62,3.87Z" fill="#231f20"/>
      </g>
      <g>
        <polygon points="53.86 17.03 49.09 21.03 51.55 21.03 56.17 17.03 52.94 14.27 51.55 15.03 53.86 17.03" fill="#231f20"/>
        <path d="M51.6,21.15h-2.85l4.92-4.12-2.33-2.02,1.62-.9,3.41,2.92-.11.1-4.65,4.03ZM49.44,20.9h2.07l4.47-3.87-3.06-2.62-1.15.64,2.28,1.98-4.62,3.87Z" fill="#231f20"/>
      </g>
      <g>
        <polygon points="10.93 11.96 12.78 11.96 19.39 4.58 17.55 4.58 10.93 11.96" fill="#231f20" fill-rule="evenodd"/>
        <path d="M12.83,12.09h-2.18l6.84-7.63h2.18l-6.84,7.63ZM11.21,11.84h1.51l6.39-7.13h-1.51l-6.39,7.13Z" fill="#231f20"/>
      </g>
    </g>
  </g>
</svg>