<?xml version="1.0" encoding="UTF-8"?>
<svg id="Layer_2" data-name="Layer 2" xmlns="http://www.w3.org/2000/svg" viewBox="0 0 19.57 20.13">
  <g id="_图层_1" data-name="图层 1">
    <g>
      <path d="M7.11,7.82l2.34-4.05.08-.02c1.65-.47,3.35-.72,5.08-.74h.1s.07.08.07.08c.66.8,1.26,1.66,1.78,2.55l.22.37-.42-.04c-.51-.05-1.03-.07-1.53-.07-2.48,0-4.87.55-7.09,1.63l-.64.31ZM9.74,4.13l-1.56,2.7c2.1-.92,4.33-1.38,6.65-1.38.38,0,.76.01,1.14.04-.44-.71-.93-1.4-1.46-2.06-1.62.03-3.22.26-4.77.7Z" fill="#808285"/>
      <path d="M3.84,13.48l3.66-6.34.06-.03c2.28-1.11,4.72-1.67,7.28-1.67.51,0,1.04.02,1.57.07h.11s.06.1.06.1c.49.82.93,1.69,1.3,2.58l.16.38-.4-.08c-.91-.19-1.85-.28-2.79-.28-3.72,0-7.2,1.45-9.82,4.08l-1.17,1.18ZM7.81,7.48l-2.06,3.57c2.55-2.11,5.73-3.26,9.09-3.26.83,0,1.66.07,2.48.21-.32-.71-.67-1.4-1.06-2.06-.48-.04-.95-.06-1.42-.06-2.46,0-4.83.54-7.03,1.6Z" fill="#808285"/>
      <path d="M1.15,20.13H0l1.93-3.34-.43,1.6c-.14.51-.25,1.04-.32,1.56l-.03.18Z" fill="#808285"/>
      <path d="M3.18,20.13H.71l.04-.25c.08-.54.19-1.08.33-1.61v-.03s3.61-6.23,3.61-6.23l.02-.02c2.7-2.72,6.29-4.21,10.13-4.21.97,0,1.94.1,2.88.29l.11.02.04.1c.32.75.59,1.52.82,2.3l.11.39-.39-.12c-1.16-.37-2.36-.55-3.59-.55-5.76,0-10.65,4.09-11.62,9.73l-.03.18ZM1.21,19.7h1.6c.52-2.72,1.97-5.21,4.1-7.02,2.21-1.87,5.02-2.9,7.92-2.9,1.13,0,2.25.15,3.33.46-.19-.6-.4-1.19-.64-1.77-.88-.17-1.78-.26-2.68-.26-3.71,0-7.19,1.44-9.8,4.07l-3.54,6.14c-.11.42-.21.85-.28,1.28Z" fill="#808285"/>
      <path d="M4.92,20.13h-2.19l.04-.25c.49-2.79,1.95-5.35,4.13-7.2,2.21-1.87,5.02-2.9,7.92-2.9,1.27,0,2.52.19,3.72.57l.11.03.03.11c.2.67.36,1.35.49,2.03l.08.4-.38-.16c-1.28-.56-2.64-.84-4.05-.84-4.77,0-8.93,3.38-9.87,8.03l-.04.17ZM3.25,19.7h1.32c1.06-4.76,5.34-8.2,10.26-8.2,1.33,0,2.62.24,3.85.72-.11-.5-.23-1-.37-1.49-1.12-.34-2.29-.52-3.48-.52-5.67,0-10.5,3.97-11.58,9.48Z" fill="#808285"/>
      <path d="M6.43,20.13h-1.95l.05-.26c.99-4.85,5.32-8.37,10.3-8.37,1.47,0,2.89.3,4.22.88l.1.05.02.11c.11.59.2,1.2.26,1.79l.04.42-.37-.21c-1.3-.75-2.78-1.14-4.29-1.14-4,0-7.44,2.7-8.36,6.56l-.04.17ZM5.01,19.7h1.07c.49-1.87,1.59-3.55,3.11-4.77,1.61-1.29,3.56-1.96,5.63-1.96,1.44,0,2.86.34,4.14,1-.05-.41-.12-.83-.19-1.23-1.25-.53-2.58-.8-3.95-.8-4.68,0-8.77,3.25-9.82,7.77Z" fill="#808285"/>
      <path d="M7.73,20.13h-1.74l.06-.27c.46-1.93,1.58-3.68,3.15-4.93,1.61-1.29,3.56-1.96,5.63-1.96,1.58,0,3.14.41,4.51,1.2l.1.06v.11c.07.52.1,1.06.12,1.59v.45s-.34-.27-.34-.27c-1.27-.94-2.79-1.44-4.38-1.44-3.27,0-6.17,2.19-7.06,5.31l-.04.16ZM6.54,19.7h.87c.99-3.23,4.02-5.47,7.43-5.47,1.54,0,3,.44,4.27,1.27-.02-.34-.04-.68-.08-1.01-1.28-.71-2.72-1.09-4.19-1.09-3.9,0-7.28,2.58-8.3,6.3Z" fill="#808285"/>
      <path d="M8.85,20.13h-1.58l.08-.28c.94-3.31,4.02-5.63,7.48-5.63,1.68,0,3.29.53,4.63,1.53l.08.06v.1c.01.26.02.48.02.69,0,.22,0,.46-.01.74l-.02.49-.35-.34c-1.17-1.13-2.72-1.76-4.35-1.76-2.69,0-5.07,1.71-5.93,4.25l-.05.15ZM7.86,19.7h.69c.96-2.63,3.46-4.39,6.29-4.39,1.59,0,3.09.55,4.3,1.56,0-.09,0-.17,0-.25,0-.17,0-.36,0-.57-1.25-.9-2.74-1.38-4.29-1.38-3.17,0-6,2.06-6.98,5.04Z" fill="#808285"/>
      <path d="M9.83,20.13h-1.43l.1-.29c.92-2.72,3.46-4.54,6.34-4.54,1.75,0,3.4.67,4.65,1.88l.07.07v.1c-.02.44-.05.88-.09,1.31l-.05.55-.34-.44c-1.02-1.34-2.57-2.11-4.25-2.11-2.19,0-4.13,1.31-4.95,3.33l-.05.14ZM9.01,19.7h.53c.91-2.11,2.97-3.47,5.29-3.47,1.64,0,3.16.67,4.25,1.86.02-.22.03-.44.04-.66-1.17-1.09-2.68-1.69-4.28-1.69-2.59,0-4.89,1.58-5.83,3.96Z" fill="#808285"/>
      <path d="M19.21,20.03l-.3-.04c-.77-1.56-2.33-2.53-4.07-2.53s-3.33,1-4.09,2.56l-.06.12h-1.32l.12-.3c.88-2.19,2.98-3.6,5.35-3.6,1.82,0,3.49.83,4.59,2.28l.05.07v.08c-.05.42-.1.85-.16,1.27l-.1.11ZM10.02,19.7h.4c.85-1.63,2.56-2.68,4.41-2.68,1.69,0,3.23.83,4.14,2.21.02-.18.04-.35.06-.53-1.02-1.3-2.54-2.04-4.2-2.04-2.08,0-3.94,1.18-4.82,3.04Z" fill="#808285"/>
      <path d="M19.28,20.13h-9.07l.15-.31c.82-1.7,2.58-2.8,4.47-2.8s3.62,1.06,4.46,2.77l.03.06-.04.28ZM10.91,19.7h7.84c-.81-1.39-2.28-2.25-3.92-2.25s-3.11.87-3.92,2.25Z" fill="#808285"/>
      <g>
        <line x1="9.45" y1="4.23" x2="11.73" y2=".3" fill="#808285"/>
        <rect x="8.32" y="2.01" width="4.55" height=".5" transform="translate(3.32 10.29) rotate(-59.88)" fill="#808285"/>
      </g>
      <path d="M14.97,3.3c-.15-.19-.31-.38-.48-.57h0c-.18-.21-.38-.41-.57-.61-.77-.79-1.62-1.54-2.3-2.11l-.2.34.14.12c1.11.91,2.13,1.94,3.03,3.07l.39.49v-.63s-.01-.07-.02-.1Z" fill="#808285"/>
    </g>
  </g>
</svg>