<?xml version="1.0" encoding="UTF-8"?>
<svg id="Layer_2" data-name="Layer 2" xmlns="http://www.w3.org/2000/svg" viewBox="0 0 95.85 83.01">
  <g id="_图层_1" data-name="图层 1">
    <g>
      <path d="M50.76,67.24l-.14-1.07c-.32-2.4-.79-4.8-1.41-7.13l-.08-.3.21-.23c4.93-5.52,7.65-12.63,7.65-20.02,0-10.87-5.92-20.93-15.44-26.27l-.51-.29,3.64-6.3.5.28c11.79,6.63,19.11,19.11,19.11,32.57,0,10.72-4.63,20.94-12.71,28.04l-.81.71ZM50.4,59.04c.5,1.93.91,3.91,1.21,5.89,7.33-6.84,11.51-16.42,11.51-26.44,0-12.86-6.89-24.79-18.02-31.28l-2.48,4.3c9.59,5.61,15.52,15.89,15.52,26.98,0,7.57-2.75,14.86-7.74,20.56Z" fill="#231f20"/>
      <path d="M40.02,40l-1.05-1.32c-2.4-3.01-5.12-5.77-8.08-8.2l-.38-.31,2.06-3.56.49.27c4.22,2.28,6.88,6.66,6.94,11.44l.02,1.69ZM32,29.9c2.4,2.01,4.65,4.23,6.69,6.62-.57-3.45-2.64-6.52-5.69-8.35l-1,1.73Z" fill="#231f20"/>
      <path d="M47.72,54.28l-.39-1.01c-.62-1.6-1.32-3.19-2.07-4.71l-.13-.26.14-.26c1.55-2.97,2.33-6.18,2.33-9.55,0-7.53-4.11-14.49-10.73-18.16l-.51-.28,2.71-4.69.5.28c8.3,4.63,13.46,13.39,13.46,22.85,0,5.36-1.62,10.51-4.67,14.9l-.62.89ZM46.42,48.31c.56,1.14,1.09,2.32,1.58,3.52,2.53-3.99,3.86-8.58,3.86-13.34,0-8.86-4.73-17.07-12.38-21.56l-1.55,2.69c6.69,3.94,10.81,11.12,10.81,18.88,0,3.41-.8,6.79-2.33,9.82Z" fill="#231f20"/>
      <path d="M43.75,45.71l-.63-1.05c-.68-1.13-1.41-2.25-2.16-3.32l-.14-.19.04-.23c.14-.81.21-1.62.21-2.42,0-5.21-2.86-10.01-7.45-12.52l-.52-.28,2.06-3.56.5.27c5.89,3.24,9.54,9.41,9.54,16.09,0,2.07-.35,4.11-1.03,6.06l-.41,1.16ZM42.04,40.86c.48.69.95,1.4,1.4,2.11.4-1.46.6-2.97.6-4.49,0-6.08-3.22-11.7-8.45-14.8l-.9,1.56c4.67,2.78,7.54,7.8,7.54,13.24,0,.78-.06,1.58-.19,2.38Z" fill="#231f20"/>
      <path d="M95.85,83.01h-45.51l.16-1.01.25-.14c12.48-6.86,21.41-18.71,24.51-32.51l.32-1.44,20.27,35.1ZM53.06,81.85h40.78l-17.8-30.84c-3.28,12.86-11.55,23.94-22.98,30.84Z" fill="#231f20"/>
      <path d="M95.85,83.01h-3.67l.06-.63c.1-1.08.16-2.15.18-3.17l.05-2.05,3.38,5.85ZM93.44,81.85h.41l-.36-.63c-.01.21-.03.42-.04.63Z" fill="#231f20"/>
      <path d="M87.84,83.01h-6.72l.07-.64c.17-1.46.25-2.93.25-4.37,0-8.32-2.62-16.24-7.57-22.91l-.18-.24.1-.29c.59-1.7,1.08-3.46,1.48-5.2l.32-1.44,11.29,19.55.02.08c.81,3.41,1.22,6.93,1.22,10.46,0,1.49-.08,3-.22,4.49l-.05.52ZM82.4,81.85h4.38c.11-1.28.17-2.58.17-3.86,0-3.41-.39-6.81-1.17-10.11l-9.74-16.87c-.31,1.22-.67,2.43-1.07,3.62,4.99,6.82,7.62,14.89,7.62,23.35,0,1.27-.06,2.57-.19,3.86Z" fill="#231f20"/>
      <path d="M77.12,83.01h-5.7l.1-.66c.22-1.43.33-2.9.33-4.35,0-4.47-.99-8.75-2.95-12.74l-.14-.29.17-.27c.92-1.47,1.78-3,2.54-4.56l.46-.95.55.9c3.27,5.39,5,11.58,5,17.9,0,1.5-.1,3.02-.29,4.51l-.07.5ZM72.76,81.85h3.34c.15-1.28.22-2.57.22-3.86,0-5.76-1.48-11.41-4.3-16.39-.6,1.17-1.26,2.32-1.95,3.44,1.94,4.06,2.93,8.42,2.93,12.96,0,1.29-.08,2.58-.25,3.86Z" fill="#231f20"/>
      <path d="M68.75,83.01h-4.55l.14-.69c.28-1.42.43-2.87.43-4.32,0-2.1-.3-4.18-.89-6.18l-.09-.31.21-.24c.85-.96,1.67-1.95,2.43-2.96l.62-.82.37.96c1.19,3.05,1.79,6.26,1.79,9.55,0,1.52-.13,3.04-.39,4.54l-.08.48ZM65.6,81.85h2.17c.2-1.27.3-2.57.3-3.86,0-2.8-.46-5.54-1.35-8.16-.53.66-1.07,1.32-1.64,1.96.56,2.01.85,4.1.85,6.2,0,1.29-.11,2.59-.32,3.86Z" fill="#231f20"/>
      <path d="M62.37,83.01h-4.12l.2-.73c.38-1.4.58-2.84.58-4.28,0-.47-.02-.95-.07-1.48l-.03-.3.23-.19c.83-.71,1.67-1.48,2.48-2.28l.76-.75.21,1.05c.26,1.29.39,2.62.39,3.95,0,1.54-.18,3.08-.52,4.57l-.1.45ZM59.75,81.85h1.7c.26-1.26.39-2.56.39-3.86,0-.89-.06-1.78-.19-2.66-.5.47-1.01.93-1.52,1.38.03.45.05.87.05,1.28,0,1.3-.15,2.59-.44,3.86Z" fill="#231f20"/>
      <path d="M57.04,83.01h-3.29l.29-.78c.31-.82.53-1.69.65-2.57l.04-.25.21-.14c.67-.46,1.35-.95,2.01-1.46l.95-.72-.02,1.19c-.03,1.48-.27,2.94-.72,4.33l-.13.4ZM55.4,81.85h.8c.22-.78.38-1.58.46-2.39-.28.21-.57.41-.85.6-.1.6-.23,1.2-.41,1.78Z" fill="#231f20"/>
      <polygon points="51.51 83.01 48.65 83.01 51.77 81.29 51.51 83.01" fill="#231f20"/>
      <path d="M51.09,74.75l.02-1.11c0-2.48-.17-5-.49-7.47l-.04-.31.23-.2c7.83-6.88,12.31-16.78,12.31-27.17,0-13.05-7.1-25.14-18.52-31.57l-.51-.29L47.92,0l23.15,40v.17c-.42,7.04-2.32,13.59-5.66,19.48-3.24,5.72-7.68,10.54-13.2,14.33-.12.33-.4.38-.53.37h0s-.59.4-.59.4ZM51.8,66.32c.26,2.07.41,4.15.45,6.23,10.57-7.55,16.82-18.97,17.64-32.27l-7.16-12.38c1.01,3.39,1.54,6.95,1.54,10.58,0,10.61-4.54,20.74-12.48,27.83ZM45.68,6.2c3.11,1.81,5.89,4.03,8.3,6.57l-6.06-10.46-2.25,3.89Z" fill="#231f20"/>
      <path d="M95.85,83.01h-45.54l.12-.73c.17-1.09.3-2.2.41-3.31.1-1.12.18-2.27.22-3.43.02-.74.04-1.35.04-1.93,0-.54-.01-1.11-.03-1.81-.04-1.39-.14-2.79-.28-4.16-.16-1.56-.4-3.14-.69-4.69-.34-1.79-.77-3.58-1.28-5.32-.6-2.04-1.32-4.07-2.15-6.02-.98-2.32-2.13-4.59-3.41-6.74-1.33-2.25-2.84-4.42-4.49-6.46-4.4.07-8.76.72-12.97,1.93l-1.37.4L47.92,0l47.92,83.01ZM51.66,81.85h42.19L47.92,2.31l-21.1,36.55c3.97-1.02,8.07-1.57,12.19-1.61h.28s.18.21.18.21c1.75,2.15,3.35,4.44,4.76,6.81,1.3,2.19,2.47,4.51,3.48,6.88.85,2,1.58,4.07,2.2,6.15.52,1.78.96,3.61,1.31,5.43.3,1.58.54,3.19.7,4.79.15,1.4.24,2.83.29,4.24.02.71.03,1.29.03,1.84,0,.59-.01,1.22-.04,1.97-.04,1.18-.11,2.36-.22,3.5-.09.93-.2,1.86-.33,2.78Z" fill="#231f20"/>
      <path d="M18.99,50.12l6.25-10.83.22-.06c4.39-1.26,8.95-1.93,13.56-1.98h.28s.18.21.18.21c1.75,2.15,3.35,4.44,4.76,6.81l.58.98-1.13-.11c-1.37-.13-2.74-.19-4.08-.19-6.63,0-13,1.46-18.92,4.35l-1.7.83ZM26,40.28l-4.16,7.21c5.6-2.45,11.57-3.69,17.76-3.69,1,0,2.03.04,3.05.11-1.19-1.9-2.5-3.75-3.9-5.5-4.32.07-8.61.7-12.75,1.87Z" fill="#231f20"/>
      <path d="M10.25,65.25l9.77-16.92.16-.08c6.08-2.96,12.62-4.46,19.43-4.46,1.38,0,2.78.07,4.19.2l.29.03.15.25c1.3,2.19,2.47,4.51,3.48,6.88l.43,1.01-1.08-.22c-2.44-.5-4.95-.75-7.46-.75-9.93,0-19.24,3.87-26.22,10.91l-3.13,3.16ZM20.84,49.22l-5.5,9.53c6.81-5.64,15.29-8.71,24.26-8.71,2.22,0,4.44.19,6.61.57-.84-1.89-1.79-3.73-2.82-5.49-1.27-.11-2.54-.17-3.79-.17-6.57,0-12.89,1.44-18.76,4.27Z" fill="#231f20"/>
      <path d="M3.06,83.01H0l5.15-8.92-1.15,4.26c-.37,1.37-.66,2.77-.87,4.16l-.07.49Z" fill="#231f20"/>
      <path d="M8.48,83.01H1.89l.1-.66c.21-1.44.51-2.88.89-4.29l.02-.07,9.61-16.65.05-.05c7.2-7.25,16.8-11.25,27.04-11.25,2.59,0,5.18.26,7.69.78l.3.06.12.28c.85,2,1.58,4.07,2.2,6.15l.31,1.04-1.03-.33c-3.09-.98-6.31-1.48-9.57-1.48-15.37,0-28.43,10.93-31.04,25.99l-.08.48ZM3.23,81.85h4.28c1.38-7.27,5.25-13.91,10.95-18.74,5.89-4.99,13.4-7.73,21.14-7.73,3.02,0,6,.41,8.88,1.22-.5-1.6-1.08-3.18-1.72-4.72-2.35-.46-4.75-.69-7.16-.69-9.9,0-19.19,3.85-26.17,10.85l-9.46,16.38c-.3,1.13-.55,2.28-.74,3.43Z" fill="#231f20"/>
      <path d="M13.14,83.01h-5.84l.12-.68c1.29-7.46,5.22-14.28,11.04-19.22,5.89-4.99,13.4-7.73,21.14-7.73,3.38,0,6.72.52,9.92,1.53l.29.09.09.29c.52,1.78.96,3.61,1.31,5.43l.2,1.08-1-.44c-3.42-1.5-7.06-2.25-10.81-2.25-12.74,0-23.83,9.01-26.37,21.43l-.09.46ZM8.69,81.85h3.52c2.82-12.71,14.27-21.89,27.4-21.89,3.55,0,7,.65,10.27,1.93-.28-1.34-.61-2.67-.99-3.97-3-.92-6.12-1.39-9.28-1.39-15.14,0-28.03,10.61-30.91,25.32Z" fill="#231f20"/>
      <path d="M17.16,83.01h-5.2l.14-.69c2.64-12.95,14.21-22.35,27.5-22.35,3.92,0,7.71.79,11.28,2.35l.28.12.06.3c.3,1.58.54,3.19.7,4.79l.12,1.12-.98-.56c-3.47-1.99-7.43-3.04-11.46-3.04-10.67,0-19.85,7.21-22.33,17.53l-.11.44ZM13.39,81.85h2.87c1.3-4.98,4.24-9.49,8.3-12.72,4.31-3.43,9.51-5.24,15.04-5.24,3.85,0,7.65.92,11.04,2.66-.14-1.1-.31-2.2-.51-3.3-3.34-1.42-6.88-2.13-10.54-2.13-12.51,0-23.42,8.68-26.21,20.74Z" fill="#231f20"/>
      <path d="M20.63,83.01h-4.66l.17-.71c1.24-5.16,4.23-9.84,8.41-13.17,4.31-3.43,9.51-5.24,15.04-5.24,4.23,0,8.39,1.11,12.03,3.2l.26.15.03.29c.15,1.4.24,2.83.29,4.24l.04,1.19-.96-.71c-3.4-2.52-7.44-3.85-11.68-3.85-8.73,0-16.48,5.83-18.85,14.19l-.12.42ZM17.45,81.85h2.31c2.65-8.62,10.75-14.61,19.84-14.61,4.1,0,8.02,1.17,11.4,3.4-.05-.91-.11-1.81-.2-2.71-3.41-1.9-7.27-2.9-11.2-2.9-10.42,0-19.43,6.88-22.15,16.81Z" fill="#231f20"/>
      <path d="M23.64,83.01h-4.21l.21-.74c2.51-8.85,10.72-15.03,19.96-15.03,4.5,0,8.77,1.41,12.37,4.08l.22.17v.28c.03.71.04,1.29.04,1.84,0,.59-.01,1.22-.04,1.97l-.04,1.3-.93-.9c-3.13-3.03-7.26-4.69-11.62-4.69-7.18,0-13.54,4.56-15.83,11.34l-.13.39ZM20.97,81.85h1.84c2.55-7.03,9.25-11.73,16.79-11.73,4.23,0,8.26,1.47,11.48,4.17,0-.24,0-.46,0-.68,0-.46,0-.96-.02-1.53-3.35-2.41-7.31-3.68-11.46-3.68-8.47,0-16.02,5.49-18.63,13.45Z" fill="#231f20"/>
      <path d="M26.25,83.01h-3.83l.26-.76c2.44-7.25,9.25-12.12,16.93-12.12,4.66,0,9.07,1.78,12.42,5.02l.18.18v.26c-.05,1.18-.12,2.36-.23,3.5l-.14,1.47-.9-1.18c-2.72-3.57-6.85-5.62-11.35-5.62-5.85,0-11.03,3.49-13.21,8.9l-.15.36ZM24.05,81.85h1.43c2.44-5.64,7.94-9.26,14.13-9.26,4.37,0,8.43,1.8,11.34,4.98.04-.59.07-1.18.09-1.77-3.11-2.92-7.16-4.52-11.44-4.52-6.91,0-13.06,4.22-15.55,10.57Z" fill="#231f20"/>
      <path d="M51.29,82.74l-.81-.12c-2.05-4.17-6.22-6.76-10.88-6.76s-8.9,2.68-10.91,6.82l-.16.33h-3.53l.32-.79c2.35-5.85,7.96-9.62,14.28-9.62,4.86,0,9.33,2.22,12.26,6.08l.14.18-.02.22c-.11,1.13-.25,2.27-.42,3.38l-.28.29ZM26.75,81.85h1.07c2.26-4.35,6.85-7.15,11.78-7.15,4.52,0,8.61,2.23,11.05,5.91.06-.47.11-.95.16-1.42-2.72-3.46-6.79-5.45-11.21-5.45-5.56,0-10.51,3.15-12.86,8.11Z" fill="#231f20"/>
      <path d="M51.48,83.01h-24.22l.4-.83c2.2-4.54,6.89-7.47,11.95-7.47s9.67,2.84,11.91,7.41l.08.16-.12.73ZM29.14,81.85h20.93c-2.16-3.72-6.1-5.99-10.46-5.99s-8.31,2.32-10.46,5.99Z" fill="#231f20"/>
    </g>
  </g>
</svg>