<svg xmlns="http://www.w3.org/2000/svg" width="45.798" height="52.702" viewBox="0 0 45.798 52.702">
  <path id="tiktok-svgrepo-com" d="M27.024,1.048C29.9,1,32.757,1.027,35.611,1a13.643,13.643,0,0,0,3.847,9.162l0,0a15.414,15.414,0,0,0,9.264,3.928l.049,0v8.851A23.422,23.422,0,0,1,39.4,20.754l.144.06a27.04,27.04,0,0,1-3.65-2.1l.091.06C35.962,25.184,36,31.6,35.94,37.988a16.719,16.719,0,0,1-3,8.707l.035-.054A16.371,16.371,0,0,1,20.02,53.69H20c-.216.011-.471.016-.728.016a15.943,15.943,0,0,1-8.3-2.318l.07.04A16.6,16.6,0,0,1,3.023,38.96l-.007-.072c-.044-1.1-.065-2.2-.021-3.273a16.552,16.552,0,0,1,16.452-14.9,16.734,16.734,0,0,1,2.819.239l-.1-.014c.044,3.25-.088,6.5-.088,9.751a7.4,7.4,0,0,0-2.5-.425A7.539,7.539,0,0,0,12.475,35.3l-.016.053a8.528,8.528,0,0,0-.369,2.506,9,9,0,0,0,.065,1.072l0-.042a7.486,7.486,0,0,0,7.383,6.31c.107,0,.213,0,.318-.007h-.016a7.377,7.377,0,0,0,6.065-3.5l.018-.032a5.023,5.023,0,0,0,.9-2.3l0-.025c.22-3.932.132-7.84.153-11.772.021-8.851-.021-17.681.044-26.509Z" transform="translate(-2.97 -1.004)"/>
</svg>
