<?xml version="1.0" encoding="UTF-8"?>
<svg id="Layer_2" data-name="Layer 2" xmlns="http://www.w3.org/2000/svg" xmlns:xlink="http://www.w3.org/1999/xlink" viewBox="0 0 17.74 29.62">
  <defs>
    <clipPath id="clippath">
      <path d="M17.74,17.76s-.69,2.99-1.08,4.37c-.38,1.38-3.95,5.97-7.31,7.41C6.45,30.79,0,16.31,0,16.31L1.01,6.04,8.48,0l3.25,4.36,6.01,13.4Z" fill="none"/>
    </clipPath>
  </defs>
  <g id="_图层_1" data-name="图层 1">
    <g clip-path="url(#clippath)">
      <g>
        <path d="M9.37,24.58l-.04-.34c-.1-.76-.25-1.51-.45-2.25l-.03-.1.07-.07c1.56-1.74,2.42-3.99,2.42-6.32,0-3.43-1.87-6.61-4.87-8.29l-.16-.09,1.15-1.99.16.09c3.72,2.09,6.03,6.03,6.03,10.29,0,3.38-1.46,6.61-4.01,8.85l-.26.23ZM9.26,21.99c.16.61.29,1.23.38,1.86,2.31-2.16,3.64-5.18,3.64-8.35,0-4.06-2.18-7.83-5.69-9.88l-.78,1.36c3.03,1.77,4.9,5.02,4.9,8.52,0,2.39-.87,4.69-2.44,6.49Z" fill="#808285"/>
        <path d="M5.98,15.98l-.33-.42c-.76-.95-1.62-1.82-2.55-2.59l-.12-.1.65-1.13.16.08c1.33.72,2.17,2.1,2.19,3.61v.53ZM3.45,12.79c.76.63,1.47,1.33,2.11,2.09-.18-1.09-.83-2.06-1.8-2.64l-.32.55Z" fill="#808285"/>
        <path d="M8.41,20.49l-.12-.32c-.2-.51-.42-1.01-.65-1.49l-.04-.08.04-.08c.49-.94.74-1.95.74-3.02,0-2.38-1.3-4.58-3.39-5.73l-.16-.09.85-1.48.16.09c2.62,1.46,4.25,4.23,4.25,7.22,0,1.69-.51,3.32-1.48,4.71l-.2.28ZM8,18.6c.18.36.34.73.5,1.11.8-1.26,1.22-2.71,1.22-4.21,0-2.8-1.49-5.39-3.91-6.81l-.49.85c2.11,1.24,3.41,3.51,3.41,5.96,0,1.08-.25,2.15-.73,3.1Z" fill="#808285"/>
        <path d="M7.16,17.78l-.2-.33c-.21-.36-.44-.71-.68-1.05l-.04-.06v-.07c.06-.26.08-.51.08-.76,0-1.65-.9-3.16-2.35-3.95l-.16-.09.65-1.13.16.09c1.86,1.02,3.01,2.97,3.01,5.08,0,.65-.11,1.3-.33,1.91l-.13.37ZM6.62,16.25c.15.22.3.44.44.67.13-.46.19-.94.19-1.42,0-1.92-1.02-3.69-2.67-4.67l-.28.49c1.47.88,2.38,2.46,2.38,4.18,0,.25-.02.5-.06.75Z" fill="#808285"/>
        <path d="M23.61,29.56h-14.37l.05-.32.08-.04c3.94-2.17,6.76-5.91,7.74-10.26l.1-.46,6.4,11.08ZM10.1,29.19h12.88l-5.62-9.74c-1.04,4.06-3.65,7.56-7.26,9.74Z" fill="#808285"/>
        <path d="M9.48,26.95v-.35c0-.78-.05-1.58-.15-2.36v-.1s.06-.06.06-.06c2.47-2.17,3.89-5.3,3.89-8.58,0-4.12-2.24-7.94-5.85-9.97l-.16-.09,1.21-2.09,7.31,12.63v.05c-.13,2.22-.73,4.29-1.79,6.15-1.02,1.81-2.43,3.33-4.17,4.52-.04.1-.13.12-.17.12h0l-.19.13ZM9.7,24.29c.08.65.13,1.31.14,1.97,3.34-2.39,5.31-5.99,5.57-10.19l-2.26-3.91c.32,1.07.49,2.19.49,3.34,0,3.35-1.43,6.55-3.94,8.79ZM7.77,5.31c.98.57,1.86,1.27,2.62,2.08l-1.91-3.3-.71,1.23Z" fill="#808285"/>
        <path d="M9.4,28.28c-.03.35-.08.7-.13,1.04l-.04.23h14.38L8.48,3.35,2.96,12.9c.09.07.23.15.33.23l5.19-9.05,14.5,25.12h-13.32c.04-.29.08-.58.1-.88.03-.36.06-.73.07-1.1,0-.24.01-.43.01-.62,0-.17,0-.36-.01-.58-.01-.45-.04-.9-.09-1.34-.05-.5-.13-1.01-.22-1.51-.11-.58-.25-1.15-.41-1.72-.19-.66-.43-1.31-.69-1.94-.32-.75-.69-1.48-1.1-2.17-.45-.75-.95-1.47-1.5-2.15l-.06-.07h-.09c-.13,0-.25,0-.38.01.24.27.47.56.69.86.06.08.11.16.16.24.3.42.59.85.85,1.3.4.68.76,1.39,1.08,2.13.26.62.49,1.26.68,1.9.16.55.3,1.12.41,1.68.09.49.17.99.22,1.48.05.43.07.87.09,1.31,0,.22.01.4.01.57,0,.18,0,.38-.01.61-.01.37-.04.73-.07,1.08Z" fill="#808285"/>
      </g>
    </g>
  </g>
</svg>