<?xml version="1.0" encoding="UTF-8"?>
<svg id="Layer_2" xmlns="http://www.w3.org/2000/svg" version="1.1" viewBox="0 0 704 613.1">
  <!-- Generator: Adobe Illustrator 29.6.1, SVG Export Plug-In . SVG Version: 2.1.1 Build 9)  -->
  <defs>
    <style>
      .st0 {
        fill: none;
      }

      .st1 {
        fill: #bcbec0;
      }
    </style>
  </defs>
  <g id="_图层_1">
    <g>
      <path class="st1" d="M550.4,65.8h.3c3.9.9,7.8,1.8,11.7,2.9l.7.2-.5.6c-4.1,5.1-8.5,9.9-13,14.5-5.5,5.6-11.4,11-17.5,15.8-30.9,24.8-68.1,40-107.7,44-6.9.7-13.9,1-20.7,1-32.6,0-65.2-8-94.1-23l-1.3-.7,1.5-.3c5.9-1,11.8-2.2,17.6-3.6h.2s.1,0,.1,0c24.2,10.5,49.8,15.8,76.2,15.8,6.5,0,13-.3,19.5-1,40.4-4.1,77.9-20.4,108.3-47.2,6.5-5.8,12.8-12.1,18.6-18.9l.2-.2h0ZM561.4,69.5c-3.5-1-7.1-1.8-10.6-2.6-5.8,6.7-12.1,13-18.5,18.8-30.6,27-68.2,43.4-108.8,47.4-6.5.6-13.1,1-19.6,1-26.4,0-52.1-5.3-76.4-15.8-5.3,1.2-10.7,2.4-16,3.3,28.5,14.6,60.4,22.3,92.4,22.3,6.8,0,13.8-.4,20.6-1,39.4-4,76.4-19.1,107.1-43.8,6.1-4.9,11.9-10.2,17.5-15.8,4.3-4.3,8.5-9,12.4-13.8h0Z"/>
      <path class="st1" d="M507.1,48.6c49.3,0,96,15.8,135,45.8,3.6,2.8,7.2,5.7,10.7,8.8,3.3,2.9,6.5,5.9,9.6,8.9,2.9,2.9,5.8,5.9,8.6,9,2.7,2.9,5.3,6,7.8,9,2.4,2.9,4.7,6,7,9,2.1,2.9,4.2,5.9,6.2,9,2.1,3.2,4.1,6.4,6.1,9.7,1.9,3.1,3.7,6.4,5.4,9.7l.4.7v34.5s-1-2.7-1-2.7c-1.1-3.2-2.4-6.5-3.8-9.8-1.5-3.5-3.1-7.1-4.8-10.6-1.7-3.5-3.5-6.9-5.4-10.3-1.9-3.4-3.9-6.8-6-10.1-2-3.1-4.1-6.3-6.2-9.3-2.2-3.1-4.6-6.2-6.9-9.2-2.5-3.1-5.1-6.2-7.7-9.1-2.7-3.1-5.7-6.1-8.6-9-3.1-3.1-6.3-6.1-9.6-8.9-3.4-3-7-5.9-10.7-8.7-36.5-27.8-80.1-42.6-126.1-42.6-2.1,0-4.2-.1-6.3-.1-44.6,0-78.5,17.8-93,25.4l-.5.2-.5-.9c15-8.1,36.8-24.2,47.3-31.9h.2c17.2-4.3,34.9-6.4,52.7-6.4h0ZM703,168.4l-.3-.5c-1.7-3.3-3.5-6.5-5.4-9.6-1.9-3.2-3.9-6.5-6-9.6-2-3-4.1-6-6.2-8.9-2.2-3-4.5-6-6.9-8.9-2.5-3-5.1-6-7.7-9-2.8-3.1-5.7-6.1-8.6-8.9-3.1-3-6.3-6-9.6-8.9-3.5-3.1-7.1-6-10.7-8.8-38.8-29.8-85.3-45.6-134.4-45.6-17.7,0-35.3,2.1-52.4,6.3-7.9,5.8-22.1,16.3-35.1,24.6,17.7-8.4,46.1-19.3,81.2-19.3,2.1,0,4.2,0,6.3.1,46.2,0,90,14.8,126.7,42.8,3.7,2.8,7.3,5.8,10.7,8.8,3.3,2.9,6.5,5.9,9.6,9,3,2.9,5.9,6,8.7,9.1,2.7,3,5.3,6.1,7.8,9.2,2.4,3,4.7,6.1,7,9.2,2.1,3,4.2,6.1,6.2,9.3,2.1,3.3,4.1,6.8,6.1,10.2,1.9,3.4,3.7,6.9,5.4,10.3,1.7,3.5,3.3,7,4.8,10.6,1,2.4,2,4.9,2.9,7.2v-28.6s0,0,0,0Z"/>
      <g>
        <path class="st0" d="M703.5,395.6v32.9c-1,16-3.6,31.6-7.6,46.7-4.2-2.9-8.4-5.9-12.4-9.1-4-3.1-7.9-6.3-11.6-9.7-3.8-3.3-7.5-6.8-11-10.3-45-44.9-72.8-107-72.8-175.5,0-6.3.3-12.5.7-18.6.4-5,.9-10.1,1.6-15,.7-5,1.5-10,2.5-14.9,1-5.1,2.2-10.1,3.5-15,60.8,42,102.1,110.4,107.2,188.7Z"/>
        <path class="st1" d="M704,594.9v18.2h-14.5s.7-.8.7-.8c4.4-5.2,8.7-10.6,12.9-16.2,0,0,.9-1.2.9-1.2ZM703,612.1v-14.2c-3.7,4.9-7.4,9.6-11.3,14.2h11.3Z"/>
        <path class="st1" d="M704,565.7v30.9s-.1.1-.1.1c-4.1,5.6-8.5,11-12.9,16.2v.2c-.1,0-23.5,0-23.5,0l.8-.8c13-13.8,24.6-29,34.7-45.1,0,0,.9-1.5.9-1.5ZM703,596.2v-27.1c-9.7,15.3-20.9,29.7-33.1,42.9h20.5c4.3-5.1,8.6-10.4,12.6-15.8Z"/>
        <path class="st1" d="M704,533.8v33.8s0,.1,0,.1c-10.1,16.2-21.9,31.4-34.9,45.2l-.2.2h-23.2s.9-.9.9-.9c23.2-22.2,42.2-48,56.5-76.6l.9-1.9h0ZM703,567.3v-29.3c-14,27.6-32.5,52.5-54.8,74.1h20.3c12.9-13.7,24.5-28.8,34.5-44.8Z"/>
        <path class="st1" d="M704,495.2v40.8s0,.1,0,.1c-14.3,28.7-33.4,54.6-56.7,76.8h-.1c0,.1-23.5.1-23.5.1l1-.9c35.9-30.5,63-70,78.3-114.2l1-2.8h0ZM703,535.8v-34.7c-15.4,42.9-41.8,81.2-76.6,111h20.4c23.1-22.1,42-47.8,56.3-76.3Z"/>
        <path class="st1" d="M691.6,488.3l.6.4c3.9,2.6,7.8,5,11.6,7.3h.2c0,.1,0,2.4,0,2.4-15.4,44.4-42.6,84.1-78.6,114.7h-.1c0,.1-24.1.1-24.1.1l1.2-.9c42.1-31.1,72.9-73.7,89-123.3l.2-.6h0ZM703,496.6c-3.6-2.1-7.2-4.4-10.9-6.8-16.1,49-46.5,91.2-88,122.2h20.7c35.8-30.4,62.9-69.9,78.2-114v-1.4s0,0,0,0Z"/>
        <path class="st1" d="M679.3,479.7l.6.4c4,3,8.1,5.8,12.2,8.6l.3.2v.4c-16.3,49.7-47.2,92.5-89.5,123.7h-.1c0,.1-27.5,0-27.5,0l1.5-.9c49.2-30,85.6-76.9,102.3-131.8l.2-.7h0ZM691.3,489.3c-3.9-2.6-7.7-5.3-11.4-8-16.7,54.3-52.5,100.7-101,130.8h23.6c42-31,72.7-73.4,88.8-122.8Z"/>
        <path class="st1" d="M667.9,470.6l.6.5c3.7,3.1,7.5,6.1,11.4,9l.3.2v.3c-16.9,55.2-53.4,102.2-102.8,132.4h-.1c0,0-30.8,0-30.8,0l2-.9c58.5-27.4,102-78.7,119.3-140.8l.2-.7ZM679,480.7c-3.5-2.7-7.1-5.4-10.5-8.3-17.3,61.3-60,112.1-117.6,139.7h26c49.1-30,85.3-76.7,102.1-131.4Z"/>
        <path class="st1" d="M657.3,461.1l.6.6c3.4,3.2,7,6.4,10.6,9.4l.2.2v.3c-17.4,62.3-61.1,113.9-119.9,141.4h-.2c0,0-39.6,0-39.6,0l3.4-1c71.4-20.5,126.8-78,144.5-150.2l.2-.8h0ZM667.6,471.7c-3.3-2.8-6.6-5.7-9.8-8.6-17.8,70.9-71.9,127.7-141.7,149.1h32.4c58.4-27.4,101.8-78.5,119.1-140.4Z"/>
        <path class="st0" d="M703.5,428.5v-32.9c.3,5.4.5,10.9.5,16.4,0,5.5-.2,11-.5,16.5Z"/>
      </g>
      <g>
        <path class="st1" d="M0,0h22.7s.2.2.2.2c57.4,69.1,141.8,108.8,231.6,108.8S428.6,69.3,486,.2V0C486.2,0,508.9,0,508.9,0l-.6.8c-29.1,38.3-67.1,70-109.9,91.7-44.9,22.7-93.3,34.3-143.9,34.3-50.6,0-99.1-11.5-143.9-34.3C67.7,70.8,29.7,39.1.6.8L0,0H0ZM22.2,1H2c60.7,79.3,152.6,124.8,252.4,124.8,99.8,0,191.7-45.5,252.4-124.7h-20.2c-57.6,69.2-142.2,108.9-232.2,108.9-90,0-174.6-39.7-232.2-108.9h0Z"/>
        <path class="st1" d="M21.4,0h22.4s.2.2.2.2c53.9,59,130.6,92.8,210.5,92.8,79.9,0,156.6-33.8,210.5-92.8V0C465.1,0,487.5,0,487.5,0l-.7.8c-57.6,69.3-142.3,109.1-232.3,109.1-90,0-174.7-39.8-232.3-109.1L21.4,0h0ZM43.4,1h-19.8c57.4,68.6,141.5,107.9,230.9,107.9,89.4,0,173.5-39.3,230.9-107.9h-19.8c-26.5,29-58,51.8-93.7,67.9-37,16.7-76.5,25.1-117.4,25.1-40.9,0-80.4-8.5-117.4-25.1C101.4,52.8,69.9,30,43.4,1Z"/>
        <path class="st1" d="M42.4,0h22.3s.2.1.2.1c50.8,50.2,118.2,77.8,189.5,77.8,71.4,0,138.7-27.6,189.5-77.8h.1C444.1,0,466.4,0,466.4,0l-.8.8c-26.5,29.1-58.1,52-93.8,68-37,16.7-76.5,25.1-117.4,25.1-40.9,0-80.4-8.5-117.4-25.1C101.4,52.8,69.8,29.9,43.2.8L42.5,0h0ZM64.3,1h-19.6c53.9,58.5,130.2,92,209.7,92S410.3,59.5,464.1,1h-19.6c-51,50.2-118.5,77.9-190.1,77.9S115.3,51.2,64.3,1h0Z"/>
        <path class="st1" d="M63.3,0h22.4s.1.1.1.1c46.6,41,106.5,63.5,168.6,63.5,62.1,0,122-22.5,168.6-63.5h.1C423.2,0,445.5,0,445.5,0l-.9.9c-51,50.3-118.6,78.1-190.3,78.1-71.7,0-139.2-27.7-190.2-78.1L63.3,0ZM85.3,1h-19.5c50.7,49.6,117.7,76.9,188.7,76.9,71,0,137.9-27.3,188.7-76.9h-19.5c-46.8,41-106.9,63.6-169.1,63.6-62.3,0-122.3-22.6-169.1-63.6Z"/>
        <path class="st1" d="M84.2,0h22.8s.1,0,.1,0c42.6,32.7,93.5,50,147.3,50,53.8,0,104.7-17.3,147.3-50h.1C401.9,0,424.7,0,424.7,0l-1,.9c-46.8,41.1-106.9,63.7-169.3,63.7S132,42,85.2.9L84.2,0ZM106.6,1h-19.8c46.5,40.4,106,62.6,167.6,62.6S375.5,41.4,422,1h-19.8c-42.7,32.8-93.8,50.1-147.8,50.1S149.3,33.8,106.6,1Z"/>
        <path class="st1" d="M105.3,0h23.8s.1,0,.1,0c37.2,24.3,80.5,37.2,125.2,37.2S342.4,24.4,379.6,0h.1C379.8,0,403.5,0,403.5,0l-1.2.9c-42.8,32.8-93.9,50.2-147.9,50.2-54,0-105.2-17.4-147.9-50.2L105.3,0h0ZM128.8,1h-20.5c42.3,32.1,92.9,49.1,146.1,49.1S358.2,33.1,400.6,1h-20.5c-37.4,24.4-80.8,37.3-125.6,37.3S166.2,25.4,128.8,1h0Z"/>
        <path class="st1" d="M127.3,0h27.9s.1,0,.1,0c30.8,16,64.2,24.1,99.2,24.1,34.9,0,68.3-8.1,99.2-24.1h.1C353.7,0,381.6,0,381.6,0l-1.4.9c-37.4,24.4-80.9,37.4-125.8,37.4S166.1,25.4,128.7.9L127.3,0ZM154.9,1h-24.3c36.9,23.7,79.7,36.3,123.8,36.3S341.3,24.7,378.2,1h-24.3c-31,16-64.4,24.1-99.5,24.1S185.9,17,154.9,1h0Z"/>
        <path class="st1" d="M153,0h33.4c21.8,7.8,44.7,11.7,68.1,11.7,23.3,0,46.2-3.9,68.1-11.7h.2S355.9,0,355.9,0l-1.8.9c-31,16-64.5,24.2-99.6,24.2S185.8,17,154.8.9L153,0h0ZM186.1,1h-29c30.3,15.3,63.1,23.1,97.3,23.1,34.3,0,67-7.8,97.3-23.1h-29c-21.9,7.8-44.9,11.7-68.3,11.7s-46.4-3.9-68.3-11.7h0Z"/>
        <path class="st1" d="M183.3,0h142.3s-2.7,1-2.7,1c-22,7.8-45,11.7-68.4,11.7-23.4,0-46.5-4-68.4-11.7L183.3,0h0ZM319.7,1h-130.6c21,7.1,42.9,10.7,65.3,10.7,22.3,0,44.3-3.6,65.3-10.7h0Z"/>
      </g>
      <path class="st1" d="M538.6,63.7h.6c.3.1.6.2,1,.2h.5c0,0,0,.6,0,.6v.4c-.1,0-.9,0-.9,0l-1.1-.2v-.5s0-.5,0-.5h0Z"/>
      <path class="st1" d="M524.4,62h.4c.4,0,.7,0,1.1.1h.6c0,0,0,1.1,0,1.1h0c-.3,0-.6,0-1,0h-1.3c0,0,.2-1.1.2-1.1h0Z"/>
      <path class="st1" d="M526.7,62.2c1.2.1,2.4.2,3.7.4h0c.5,0,1,.1,1.5.2h0c.2,0,.5,0,.7,0,1.3.2,2.7.3,4,.5v1h-.1c-1.3-.2-2.6-.4-4-.5h-.7c-.5-.2-1.1-.2-1.6-.3h0c-1.2-.1-2.3-.3-3.5-.4h-.1v-1c0,0,0,0,0,0Z"/>
      <polygon class="st1" points="546.3 65 546.7 65.1 546.6 65.6 546.7 65.1 547.1 65.2 546.9 66.1 546.1 66 546.3 65"/>
      <polygon class="st1" points="539.6 63.8 540.6 64 540.5 65 539.4 64.8 539.5 64.3 539.6 63.8"/>
      <path class="st1" d="M564.9,69.4l.5.2c3.6,1,7.1,2.2,10.4,3.3l.4.2v.4c-1.6,6.5-2.3,13.3-2.3,20,0,24,9.3,46.6,26.2,63.7l.2.3-.2.3c-1.7,3.5-3.3,7-4.8,10.5l-.3.7-.5-.5c-20.7-19.3-32.6-46.6-32.6-74.9,0-8,.9-15.9,2.7-23.6v-.5c.1,0,.1,0,.1,0ZM575.1,73.7c-3.1-1.1-6.2-2.1-9.5-3-1.7,7.5-2.6,15.1-2.6,22.8,0,27.8,11.6,54.6,31.8,73.7,1.4-3.2,2.8-6.4,4.3-9.6-16.9-17.2-26.2-40-26.2-64.1s.7-13.3,2.2-19.8h0Z"/>
      <path class="st1" d="M575.3,72.7l.5.2c3,1,6.1,2.2,9.2,3.5l.4.2v.4c-1.2,5.4-1.8,11-1.8,16.6,0,20.2,7.5,39.5,21.1,54.5l.2.3-.2.3c-1.6,3-3.2,6.1-4.6,9.2l-.3.6-.5-.5c-17.1-17.2-26.5-40.1-26.5-64.4,0-6.8.8-13.6,2.3-20.2v-.5h.1ZM584.3,77.1c-2.8-1.1-5.6-2.2-8.3-3.1-1.4,6.4-2.1,12.9-2.1,19.5,0,23.8,9.1,46.2,25.7,63.1,1.3-2.8,2.8-5.6,4.2-8.3-13.7-15.1-21.2-34.5-21.2-54.9s.6-11,1.7-16.4h0Z"/>
      <path class="st1" d="M584.5,76.1l.6.2c2.7,1.1,5.5,2.3,8.2,3.5l.4.2v.4c-.9,4.4-1.3,8.8-1.3,13.1,0,16.9,6,33.4,16.9,46.4l.2.3-.2.3c-1.5,2.5-2.9,5.2-4.4,8.1l-.3.6-.5-.5c-13.8-15.1-21.4-34.7-21.4-55.1s.6-11.3,1.7-16.8v-.6c.1,0,.1,0,.1,0ZM592.5,80.6c-2.4-1.1-4.8-2.1-7.2-3.1-1.1,5.2-1.6,10.6-1.6,16,0,20,7.3,39.1,20.7,53.9,1.3-2.5,2.7-4.9,4-7.2-10.9-13.1-16.9-29.7-16.9-46.7,0-4.3.4-8.6,1.2-12.9h0Z"/>
      <path class="st1" d="M592.7,79.6l.6.3c2.4,1.1,4.9,2.3,7.3,3.5l.3.2v.4c-.5,3.2-.8,6.4-.8,9.7,0,14.4,4.6,27.9,13.4,39.3l.2.3-.2.3c-1.6,2.5-2.9,4.8-4.2,7.1l-.4.6-.5-.5c-11.1-13.1-17.2-29.8-17.2-47,0-4.4.4-8.8,1.2-13.3v-.6c.1,0,.1,0,.1,0ZM599.8,84.1c-2.1-1-4.2-2.1-6.3-3-.7,4.2-1.1,8.3-1.1,12.5,0,16.7,5.8,32.9,16.5,45.8,1.1-2,2.4-4,3.7-6.2-8.8-11.5-13.4-25.2-13.4-39.6s.2-6.3.7-9.4h0Z"/>
      <path class="st1" d="M599.9,83l.6.3c2.2,1.1,4.4,2.2,6.5,3.4l.3.2v.3c-.3,2.1-.4,4.2-.4,6.3,0,11.9,3.6,23.4,10.5,33.1l.2.3-.2.3c-1.2,1.9-2.5,3.9-3.9,6.2l-.4.6-.4-.6c-8.9-11.5-13.6-25.3-13.6-39.9,0-3.3.3-6.6.7-9.8v-.7c0,0,0,0,0,0ZM606.3,87.4c-1.8-1-3.7-2-5.5-2.9-.4,3-.6,6-.6,9,0,14.1,4.5,27.5,13,38.7,1.2-1.9,2.3-3.7,3.4-5.3-6.9-9.8-10.5-21.4-10.5-33.4s.1-4,.3-6.1h0Z"/>
      <path class="st1" d="M606.4,86.4l.7.4c2.1,1.2,4,2.2,5.9,3.3l.3.2v.3c0,1.1-.1,2.1-.1,3,0,9.8,2.8,19.4,8.1,27.7l.2.3-.2.3c-1.3,1.8-2.5,3.7-3.7,5.5l-.4.6-.4-.6c-7-9.9-10.7-21.6-10.7-33.7,0-2.1.1-4.2.4-6.4v-.7c0,0,0,0,0,0ZM612.1,90.7c-1.6-.9-3.2-1.8-4.9-2.8-.2,1.9-.3,3.7-.3,5.5,0,11.7,3.5,22.9,10.1,32.5,1-1.5,2-3,3.1-4.6-5.3-8.4-8.1-18-8.1-27.9s0-1.8,0-2.8Z"/>
      <path class="st1" d="M612.2,89.6l.7.4c1.7,1,3.4,2.1,5.4,3.3l.2.2v.3c0,7.9,2.2,15.7,6.1,22.6l.2.3-.2.3c-1.2,1.7-2.4,3.3-3.4,4.8l-.4.6-.4-.6c-5.4-8.4-8.3-18.2-8.3-28.2,0-.9,0-1.9,0-3.1v-.8c0,0,0,0,0,0ZM617.5,94c-1.6-1-3-1.9-4.4-2.7,0,.8,0,1.5,0,2.2,0,9.6,2.7,18.9,7.7,27,.9-1.3,1.8-2.6,2.8-4-3.9-6.9-6-14.6-6.1-22.5Z"/>
      <path class="st1" d="M617.5,92.8l.8.5c5.4,3.4,10.6,7,15.5,10.8l.4.3-.3.4c-3.2,3.8-6.3,7.9-9.3,12.1l-.4.6-.4-.7c-4-7-6.2-15-6.2-23.1v-.9s0,0,0,0ZM632.8,104.6c-4.6-3.5-9.3-6.8-14.3-9.9.2,7.4,2.2,14.6,5.7,21,2.8-3.8,5.7-7.6,8.6-11.1h0Z"/>
      <path class="st1" d="M547.1,65.2l1.3.3c1.5.3,3,.6,4.5,1l.8.2-.7.9h-.3c-1.5-.4-3-.7-4.5-1l-1.3-.3.2-1h0Z"/>
      <path class="st1" d="M542.1,64.3h.3c1.3.2,2.5.5,3.8.7h.1s-.2,1-.2,1h0c-1.2-.2-2.4-.4-3.5-.6l-1.2-.2.7-.9Z"/>
      <path class="st1" d="M540.6,64h.7c.3.2.7.2,1,.3h.8c0,.1-.7,1-.7,1h-.3s-.7-.2-.7-.2c-.3,0-.6-.1-1-.2h0l.2-1h0Z"/>
      <path class="st1" d="M536.7,63.4c.3,0,.6,0,.9.1h.9c0,.1-.1,1.1-.1,1.1h-.9c0-.1-.9-.3-.9-.3h0v-1q.1,0,.1,0Z"/>
      <polygon class="st1" points="526.5 62.2 526.7 62.2 526.6 63.2 526.4 63.2 526.5 62.2"/>
      <g>
        <path class="st1" d="M537.2,94.3v1.1c.6,38.5,18.3,74.3,48.7,98.2l.3.2v.3c-1.7,5.2-3.1,10.5-4.4,15.9l-.2.7-.6-.4c-33.9-24.3-55.6-62-59.4-103.4v-.3s.2-.2.2-.2c3.4-2.4,6.7-4.9,9.8-7.4,1.6-1.2,3.1-2.6,4.9-4l.8-.7h0ZM585,194.2c-30.2-23.8-47.9-59.4-48.8-97.7-1.4,1.2-2.8,2.3-4.1,3.4-3.1,2.5-6.3,4.9-9.6,7.2,3.9,40.8,25.1,77.8,58.4,101.9,1.2-5,2.6-10,4-14.9h0Z"/>
        <path class="st1" d="M551.6,80.6v1.4c-.5,3.9-.7,7.7-.7,11.5,0,33.2,14.5,64.6,39.7,86.2l.3.2v.3c-1.8,4.5-3.3,9.1-4.8,13.8l-.2.7-.6-.5c-30.6-24-48.5-60.1-49-99v-.2l.2-.2c4.4-3.7,8.6-7.7,12.6-11.7.4-.4.7-.7,1-1.1l1.6-1.6h0ZM589.6,180.3c-25.3-21.8-39.8-53.4-39.8-86.8,0-3.3.1-6.7.5-10.1-.2.2-.4.4-.6.6-4,4-8.2,7.9-12.5,11.6.6,38.2,18.1,73.7,48.1,97.5,1.3-4.4,2.8-8.7,4.3-12.9h0Z"/>
        <polygon class="st1" points="552.8 66.4 554.1 66.6 553.8 67.6 552.6 67.3 552.8 66.4"/>
        <path class="st1" d="M558.5,67.7c.7.2,1.4.4,2.1.6l-.3,1c-.7-.2-1.4-.4-2.1-.5l.3-1h0Z"/>
        <path class="st1" d="M553.1,66.4h.5c.2.1.4.2.6.2h.5c0,.1-.2,1.1-.2,1.1h0v-.5c.1,0,0,.5,0,.5l-1.6-.4.3-1h0Z"/>
        <path class="st1" d="M562.1,68.7l1.3.3c.7.2,1.3.4,2,.5h.5c0,.1-.1.6-.1.6-1.8,7.6-2.7,15.5-2.7,23.3,0,28,11.8,55.1,32.3,74.2l.3.2v.3c-1.9,4-3.5,8.1-4.9,12l-.3.7-.6-.5c-25.5-21.8-40-53.5-40-87,0-3.8.2-7.7.6-11.6v-.2s.1-.1.1-.1c4-4.1,7.8-8.4,11.3-12.7l.2-.2h0ZM564.7,70.4c-.5-.1-1-.3-1.5-.4l-.7-.2c-3.5,4.2-7.2,8.4-11,12.4-.4,3.8-.6,7.6-.6,11.3,0,33,14.3,64.2,39.2,85.8,1.3-3.6,2.8-7.4,4.4-11.1-20.6-19.3-32.4-46.5-32.4-74.7,0-7.8.9-15.6,2.6-23.1h0Z"/>
        <path class="st1" d="M554.6,66.8h0c1.3.3,2.6.6,3.8.9l-.3,1h0c-1.2-.3-2.5-.6-3.8-.9l.2-1h0Z"/>
        <path class="st1" d="M560.6,68.3l.7.2c.4,0,.7.2,1.1.3l.7.2-.7.8h-.3c0,0-.6-.2-.6-.2-.4-.1-.8-.2-1.2-.3h0l.3-1h0Z"/>
        <path class="st1" d="M538.6,63.7h.3c4,.6,8,1.4,11.8,2.2l.8.2-.6.6c-5.9,6.8-12.2,13.2-18.7,19-30.6,27-68.2,43.4-108.8,47.4-6.5.6-13.1,1-19.6,1-26.5,0-52.2-5.3-76.6-15.8l-1.4-.6,1.5-.4c5.6-1.3,11.3-2.8,16.8-4.4h.1s.1,0,.1,0c19.1,6.6,39.1,10,59.4,10s12.3-.3,18.5-.9c41.8-4.2,81.1-22.8,110.8-52.4,1.8-1.8,3.6-3.7,5.4-5.6l.2-.2h0ZM549.7,66.7c-3.4-.7-7-1.4-10.6-1.9-1.7,1.9-3.5,3.7-5.3,5.5-29.8,29.8-69.4,48.5-111.4,52.7-6.2.6-12.4.9-18.6.9-20.3,0-40.4-3.4-59.6-10-5,1.5-10.1,2.8-15.2,4,23.8,10.1,49,15.2,74.8,15.2s13-.3,19.5-1c40.4-4.1,77.9-20.4,108.3-47.2,6.3-5.6,12.4-11.7,18.1-18.2h0Z"/>
        <path class="st1" d="M526.6,62.2h.2c4.1.4,8.1.9,12,1.5h.9c0,.1-.6.8-.6.8-1.8,1.9-3.6,3.8-5.4,5.7-29.8,29.8-69.4,48.5-111.4,52.7-6.2.6-12.4.9-18.6.9-20.4,0-40.5-3.4-59.7-10l-1.5-.5,1.5-.4c5.5-1.6,10.9-3.4,16.1-5.2h.1s.1,0,.1,0c14.1,3.7,28.7,5.5,43.3,5.5,5.8,0,11.7-.3,17.5-.9,39.7-4,77-21.7,105.1-49.9l.2-.2h0ZM537.8,64.6c-3.6-.5-7.2-1-10.8-1.3-28.3,28.3-65.8,46-105.6,50-5.8.6-11.8.9-17.6.9-14.6,0-29.2-1.9-43.4-5.5-4.7,1.7-9.6,3.2-14.5,4.7,18.7,6.3,38.2,9.5,57.9,9.5s12.3-.3,18.5-.9c41.8-4.2,81.1-22.8,110.8-52.4,1.6-1.6,3.2-3.2,4.8-4.9Z"/>
        <path class="st1" d="M514.2,61.5h.2c4.1.2,8.3.4,12.5.8h1.1c0,0-.8.8-.8.8-28.3,28.4-65.9,46.2-105.8,50.2-5.8.6-11.8.9-17.6.9-14.7,0-29.3-1.9-43.5-5.5l-1.6-.4,1.5-.5c5.2-1.8,10.4-3.8,15.6-6h.1c0,0,.1,0,.1,0,14.5,2.5,29.5,3,44.2,1.5,35.2-3.5,67.5-17.9,93.6-41.6h.1c0-.1,0-.1,0-.1ZM525.7,63.2c-3.7-.3-7.4-.6-11.1-.7-26.2,23.7-58.8,38.2-94.1,41.7-14.8,1.5-29.8,1-44.4-1.5-4.7,1.9-9.4,3.7-14,5.4,13.6,3.4,27.6,5.1,41.7,5.1s11.7-.3,17.5-.9c39.3-4,76.3-21.4,104.4-49.2h0Z"/>
        <path class="st1" d="M501.1,61.2h.2c2.2,0,4.1,0,5.9.1h0c2.2,0,4.6,0,7.2.1h1.2s-.9.9-.9.9c-26.3,23.8-58.8,38.3-94.2,41.8-14.8,1.5-29.9,1-44.5-1.5l-1.7-.3,1.6-.7c5.1-2.1,10.3-4.4,15.3-6.8h.1c0,0,.1,0,.1,0,9.3.8,18.8.7,28.1-.3,29.9-3,58-14.5,81.4-33.2h.1q0-.1,0-.1ZM513.1,62.4c-2.2,0-4.1,0-6,0-1.7,0-3.5,0-5.7,0-23.5,18.8-51.8,30.3-81.8,33.3-9.3.9-18.8,1-28.1.3-4.5,2.1-9.1,4.2-13.6,6.1,14,2.3,28.4,2.7,42.5,1.2,34.8-3.5,66.8-17.6,92.7-40.8h0Z"/>
        <path class="st1" d="M500.9,61.2h1.8s-1.1.9-1.1.9c-23.5,18.8-51.9,30.4-81.9,33.4-9.3.9-18.9,1-28.3.3l-1.9-.2,1.7-.8c5.1-2.5,10.3-5.1,15.2-7.8h.1c0,0,.1,0,.1,0,4.3,0,8.2-.3,12.1-.7,24.1-2.4,47.5-10.9,67.6-24.4h.1c0,0,.1,0,.1,0,4.8-.4,9.6-.6,14.4-.6h0ZM404,95.3c5.2,0,10.4-.3,15.5-.8,29.4-3,57.1-14.1,80.3-32.3-4.4,0-8.8.2-13.1.6-20.1,13.6-43.6,22.1-67.9,24.5-3.9.4-7.8.6-12,.7-4.4,2.4-8.9,4.7-13.5,6.9,3.5.2,7.1.4,10.7.4h0Z"/>
      </g>
      <path class="st1" d="M423.9,79.7l-2.6,1.2c-5.5,2.6-10.1,5-13.5,6.8l-.4.2-.5-.9c3.1-1.7,6.7-3.8,10.7-6.4l.8-.5h.6c.6,0,1.2-.1,1.7-.2l3.1-.3h0Z"/>
      <g>
        <path class="st1" d="M689.5,0h14.5v10.4s-.8-.6-.8-.6c-3.9-3-8.1-6-12.3-8.8l-1.3-.9h0ZM703,1h-10.2c3.5,2.4,6.9,4.9,10.2,7.4V1Z"/>
        <path class="st1" d="M407,87l.5.9c-1,.5-2,1-3,1.5l-.5-.9c.9-.4,1.8-.9,2.9-1.5h0Z"/>
        <polygon class="st1" points="404 88.5 404.5 89.4 403.6 89.8 403.2 88.9 404 88.5"/>
        <path class="st1" d="M403.2,88.9l.4.9c-.5.2-1,.5-1.3.6l-.4-.9c.4-.2.9-.4,1.3-.6h0Z"/>
        <path class="st1" d="M633.5,103.8l.4.3c3.7,2.8,7.3,5.8,10.7,8.8l.4.3-.3.4c-36.2,44.1-56.1,99.8-56.1,156.9,0,85.3,43.1,163.5,115.2,209.2h.2c0,.1,0,17.5,0,17.5l-.7-.4c-38.7-22.8-71.2-55.3-93.8-94.1-23.4-39.9-35.7-85.7-35.7-132.2,0-60.5,21.1-119.6,59.5-166.3l.3-.4h0ZM643.6,113.3c-3.2-2.8-6.5-5.5-9.9-8.1-38,46.5-58.9,105.2-58.9,165.3,0,91.9,49.1,178.1,128.3,225v-15.1c-34.7-22-63.6-52.5-83.7-88.3-20.8-37-31.8-79-31.8-121.7,0-57.2,19.9-113,56-157.2h0Z"/>
        <path class="st1" d="M618.9,0h39.7s.1,0,.1,0c15.9,8.9,31.1,19.3,45.1,30.8l.2.2v23s-.8-.8-.8-.8c-1.6-1.5-3.4-3-5.6-4.9-22.9-19.7-48.7-35.7-76.5-47.4L618.9,0h0ZM658.3,1h-34.5c27,11.7,52.1,27.4,74.5,46.6,1.8,1.5,3.3,2.9,4.7,4.1v-20.2c-13.9-11.4-29-21.7-44.7-30.5h0Z"/>
        <path class="st1" d="M644.2,112.5l.4.3c3.3,2.9,6.5,5.9,9.6,9l.3.3-.3.4c-33.9,41.6-52.6,94.2-52.6,148,0,77.4,38.2,149.8,102.1,193.5h.2c0,.1,0,17,0,17l-.8-.5c-34.7-22-63.8-52.6-83.9-88.4-20.8-37-31.8-79-31.8-121.7,0-57.4,20-113.3,56.3-157.6l.3-.4h0ZM653.2,122.2c-2.9-2.9-5.9-5.6-8.9-8.3-36,44-55.8,99.6-55.8,156.5,0,85,42.8,162.9,114.5,208.7v-14.5c-64.1-44-102.4-116.6-102.4-194.2,0-53.9,18.7-106.5,52.6-148.3h0Z"/>
        <path class="st1" d="M653.8,121.4l.4.4c3,2.9,5.9,6,8.6,9.1l.3.3-.3.3c-31.5,39.2-48.9,88.5-48.9,138.9,0,69.9,33.5,136.6,89.7,178.3h.2c0,.1,0,16.6,0,16.6l-.8-.5c-64.2-44-102.6-116.7-102.6-194.4,0-54,18.8-106.8,52.9-148.6l.3-.4h0ZM661.9,131.3c-2.5-2.8-5.2-5.6-7.9-8.3-33.7,41.6-52.3,93.9-52.3,147.6,0,77.1,37.9,149.2,101.4,193v-14c-27.3-20.3-49.9-47-65.4-77.1-16.3-31.7-24.6-66-24.6-101.8s17.3-99.9,48.8-139.2Z"/>
        <path class="st1" d="M662.5,130.5l.4.4c2.7,3,5.3,6.1,7.8,9.2l.2.3-.2.3c-29.3,37.3-44.9,82.2-44.9,129.8,0,63.7,28.4,123.3,78,163.4h.2c0,.1,0,16.3,0,16.3l-.8-.6c-27.4-20.3-50-47.1-65.6-77.3-16.3-31.7-24.6-66-24.6-101.8,0-50.6,17.4-100.2,49.1-139.6l.4-.5h0ZM669.6,140.4c-2.3-2.8-4.7-5.7-7.1-8.4-31.3,39.1-48.5,88.3-48.5,138.5,0,69.6,33.2,135.9,88.9,177.7v-13.6c-49.7-40.4-78.2-100.1-78.2-164.1,0-47.7,15.5-92.6,44.8-130.1h0Z"/>
        <path class="st1" d="M507.6,0h64.5c41.1,9.9,80.1,29.4,112.7,56.6,3.5,2.9,7.1,6.1,10.7,9.4,3,2.8,5.7,5.4,8.3,7.9l.2.2v22.9s-.9-1-.9-1c-.4-.5-.9-1-1.3-1.4l-.7-.8c-2.8-3.1-5.7-6.1-8.6-9-3.1-3.1-6.4-6.2-9.6-9.1-3.4-3.1-7-6.2-10.7-9.1-46.5-37.7-105.1-58.4-165-58.4s-2.9,0-4.4,0h-1.5s.7-.8.7-.8c1.9-2.3,3.7-4.7,5.6-7.1V0C507.6,0,507.6,0,507.6,0ZM572,1h-63.9c-1.6,2-3.1,4.1-4.7,6.1,1.3,0,2.5,0,3.8,0,30.7,0,60.8,5.2,89.4,15.6,27.7,10,53.3,24.5,76.3,43.1,3.7,3,7.3,6.1,10.7,9.2,3.3,2.9,6.5,6,9.6,9.1,2.9,2.9,5.8,6,8.6,9l.7.8c.1.2.3.3.4.5v-19.8c-2.5-2.5-5.2-5.1-8.1-7.8-3.6-3.3-7.2-6.5-10.7-9.4-32.5-27-71.3-46.5-112.2-56.3h0Z"/>
        <path class="st1" d="M670.3,139.6l.4.5c2.4,3,4.7,6.1,7,9.2l.2.3-.2.3c-26.6,34.9-40.7,76.6-40.7,120.6,0,56.8,24.4,111.1,66.9,148.9h.2c0,.1,0,16,0,16l-.8-.7c-49.8-40.4-78.4-100.2-78.4-164.2,0-47.8,15.6-92.9,45.1-130.4l.4-.5h0ZM676.6,149.6c-2-2.9-4.2-5.7-6.3-8.4-29.1,37.2-44.5,81.9-44.5,129.3,0,63.4,28.1,122.6,77.2,162.8v-13.3c-42.6-38-67.1-92.4-67.1-149.4,0-44.1,14.1-85.9,40.7-120.9h0Z"/>
        <path class="st1" d="M677.2,148.8l.4.5c2.1,3,4.2,6.1,6.2,9.3l.2.3-.2.3c-23.8,32.5-36.4,71-36.4,111.3,0,51,20,98.7,56.4,134.4h.2c0,.1,0,15.9,0,15.9l-.8-.7c-42.7-38-67.2-92.5-67.2-149.6,0-44.2,14.1-86.1,40.9-121.2l.4-.5h0ZM682.8,158.9c-1.8-2.9-3.7-5.7-5.6-8.4-26.3,34.8-40.3,76.3-40.3,120,0,56.4,24.1,110.4,66.1,148.1v-13.1c-36.4-35.9-56.5-83.9-56.5-135,0-40.4,12.6-79,36.4-111.6h0Z"/>
        <path class="st1" d="M683.5,158l.4.6c2.1,3.3,4.1,6.8,6.1,10.2v.3c.1,0,0,.3,0,.3-20.7,29.8-31.6,64.8-31.6,101.1,0,44,16.2,86.1,45.5,118.8h.1c0,.1,0,17.2,0,17.2l-.9-.8c-36.5-35.9-56.7-83.9-56.7-135.2,0-40.6,12.6-79.2,36.6-111.9l.4-.6h0ZM688.9,169c-1.7-3.1-3.6-6.2-5.5-9.3-23.5,32.4-35.9,70.6-35.9,110.7,0,50.5,19.7,97.9,55.5,133.6v-14.3c-29.5-32.8-45.7-75.2-45.7-119.3,0-36.5,10.9-71.5,31.6-101.5h0Z"/>
        <path class="st1" d="M507.1,20.9c56.8,0,110.4,18.6,154.9,53.9,3.6,2.9,7.2,5.9,10.7,9,3.3,2.9,6.5,6,9.6,9,3,3,6,6,8.7,9,2.6,2.9,5.2,5.8,7.8,8.9,1.9,2.3,3.6,4.4,5.1,6.3h.1c0,.1,0,26.5,0,26.5l-.9-1.4c-.8-1.2-1.6-2.4-2.4-3.6-2-2.9-4.1-5.8-6.2-8.7-2.2-3-4.6-5.9-6.9-8.8-2.5-3-5.1-6-7.7-8.9-2.8-3.1-5.7-6.1-8.6-8.9-3.1-3-6.3-6-9.6-8.9-3.5-3-7-6-10.7-8.8-41.4-32.2-91.1-49.3-143.8-49.3s-21.8.8-32.7,2.3l-1.5.2,1.1-1.1c5.4-5.1,10.6-10.5,15.5-15.9v-.2h.3c5.9-.4,11.6-.6,17.2-.6h0ZM703,117.4c-1.5-1.9-3.1-3.9-5-6.2-2.5-3-5.1-6-7.7-8.8-2.7-2.9-5.6-5.9-8.6-8.9-3.1-3-6.3-6.1-9.6-9-3.5-3.1-7.1-6.1-10.7-9-44.3-35.1-97.6-53.7-154.2-53.7s-11.2.2-16.9.6c-4.6,5-9.4,10-14.3,14.8,10.4-1.4,20.9-2.1,31.3-2.1,52.8,0,102.7,17.1,144.4,49.5,3.7,2.8,7.3,5.8,10.7,8.9,3.3,2.9,6.5,5.9,9.6,8.9,2.9,2.9,5.8,5.9,8.6,9,2.6,2.9,5.3,5.9,7.8,8.9,2.4,2.9,4.7,5.9,7,8.8,2.1,2.8,4.2,5.8,6.2,8.7.5.7,1,1.5,1.5,2.2v-22.6h0Z"/>
        <path class="st1" d="M689.5,168.1l.4.7c1.9,3.4,3.7,6.9,5.4,10.3v.3c.1,0,0,.2,0,.2-17.5,27.1-26.8,58.5-26.8,90.8,0,37.7,12.2,73.3,35.3,102.9h.1c0,.1,0,17.5,0,17.5l-.9-1c-29.5-32.8-45.8-75.3-45.8-119.5,0-36.6,11-71.7,31.8-101.7l.5-.7h0ZM694.3,179.4c-1.5-3.1-3.2-6.3-4.9-9.3-20.4,29.7-31.1,64.4-31.1,100.5,0,43.5,15.9,85.3,44.7,117.8v-14.4c-23.2-29.8-35.5-65.6-35.5-103.4,0-32.5,9.3-64,26.8-91.1h0Z"/>
        <polygon class="st1" points="704 165.8 704 170.3 702.6 167.6 704 165.8"/>
        <path class="st1" d="M694.9,178.4l.4.8c1.7,3.5,3.3,7,4.8,10.6v.2c0,0,0,.2,0,.2-14.4,24.2-21.9,52-21.9,80.3,0,30.8,8.9,60.7,25.7,86.4h0c0,.1,0,18.3,0,18.3l-.9-1.1c-23.3-29.8-35.6-65.6-35.6-103.6,0-32.5,9.3-64.1,26.9-91.4l.5-.7h0ZM699.1,189.9c-1.3-3.2-2.8-6.4-4.3-9.5-17.2,26.9-26.3,58-26.3,90.1,0,37.2,11.9,72.4,34.5,101.8v-14.9c-16.9-25.8-25.8-55.9-25.8-86.9s7.6-56.2,21.9-80.6Z"/>
        <path class="st1" d="M699.7,188.9l.4.9c1.4,3.3,2.7,6.7,3.8,9.8v.2s0,2,0,2h0c-10.9,21.1-16.7,44.8-16.7,68.6s5.8,47.5,16.7,68.5h0c0,.1,0,19.8,0,19.8l-.9-1.4c-16.9-25.9-25.9-55.9-25.9-87,0-28.4,7.6-56.4,22.1-80.8,0,0,.5-.9.5-.9ZM703,199.9c-1-2.9-2.2-5.8-3.4-8.8-14,24-21.4,51.5-21.4,79.4,0,30.3,8.6,59.6,24.8,85v-16.1c-11-21.1-16.8-45-16.8-68.9s5.8-47.8,16.8-68.9v-1.7h0Z"/>
        <path class="st1" d="M507.1,48.6c49.3,0,96,15.8,135,45.8,3.6,2.8,7.2,5.7,10.7,8.8,3.3,2.9,6.5,5.9,9.6,8.9,2.9,2.9,5.8,5.9,8.6,9,2.7,2.9,5.3,6,7.8,9,2.4,2.9,4.7,6,7,9,2.1,2.9,4.2,5.9,6.2,9,2.1,3.2,4.1,6.4,6.1,9.7,1.9,3.1,3.7,6.4,5.4,9.7l.4.7v34.5s-1-2.7-1-2.7c-1.1-3.2-2.4-6.5-3.8-9.8-1.5-3.5-3.1-7.1-4.8-10.6-1.7-3.5-3.5-6.9-5.4-10.3-1.9-3.4-3.9-6.8-6-10.1-2-3.1-4.1-6.3-6.2-9.3-2.2-3.1-4.6-6.2-6.9-9.2-2.5-3.1-5.1-6.2-7.7-9.1-2.7-3.1-5.7-6.1-8.6-9-3.1-3.1-6.3-6.1-9.6-8.9-3.4-3-7-5.9-10.7-8.7-36.5-27.8-80.1-42.6-126.1-42.6-2.1,0-4.2-.1-6.3-.1-44.6,0-78.5,17.8-93,25.4l-.5.2-.5-.9c15-8.1,36.8-24.2,47.3-31.9h.2c17.2-4.3,34.9-6.4,52.7-6.4h0ZM703,168.4l-.3-.5c-1.7-3.3-3.5-6.5-5.4-9.6-1.9-3.2-3.9-6.5-6-9.6-2-3-4.1-6-6.2-8.9-2.2-3-4.5-6-6.9-8.9-2.5-3-5.1-6-7.7-9-2.8-3.1-5.7-6.1-8.6-8.9-3.1-3-6.3-6-9.6-8.9-3.5-3.1-7.1-6-10.7-8.8-38.8-29.8-85.3-45.6-134.4-45.6-17.7,0-35.3,2.1-52.4,6.3-7.9,5.8-22.1,16.3-35.1,24.6,17.7-8.4,46.1-19.3,81.2-19.3,2.1,0,4.2,0,6.3.1,46.2,0,90,14.8,126.7,42.8,3.7,2.8,7.3,5.8,10.7,8.8,3.3,2.9,6.5,5.9,9.6,9,3,2.9,5.9,6,8.7,9.1,2.7,3,5.3,6.1,7.8,9.2,2.4,3,4.7,6.1,7,9.2,2.1,3,4.2,6.1,6.2,9.3,2.1,3.3,4.1,6.8,6.1,10.2,1.9,3.4,3.7,6.9,5.4,10.3,1.7,3.5,3.3,7,4.8,10.6,1,2.4,2,4.9,2.9,7.2v-28.6s0,0,0,0Z"/>
        <path class="st1" d="M704,199.7v23.6c-5.5,15.1-8.2,31-8.2,47.3s2.7,32.1,8.2,47.3v.2s0,23.4,0,23.4l-.9-1.8c-11-21.2-16.8-45-16.8-69s5.8-47.9,16.8-69l.9-1.8h0ZM703,223v-19.2c-10.3,20.5-15.8,43.6-15.8,66.7s5.4,46.1,15.8,66.7v-19.2c-5.4-15.2-8.2-31.2-8.2-47.5s2.8-32.3,8.2-47.5h0Z"/>
        <path class="st1" d="M704,220.2v44.5c0,2.1-.1,4-.1,5.8s0,3.7.1,5.8v44.5s-1-2.7-1-2.7c-5.5-15.3-8.2-31.3-8.2-47.6s2.8-32.3,8.2-47.6c0,0,1-2.7,1-2.7ZM703,315v-38.7c0-2.1-.1-4-.1-5.8s0-3.7.1-5.8v-38.6c-4.8,14.3-7.2,29.2-7.2,44.5,0,15.2,2.4,30.1,7.2,44.5Z"/>
        <path class="st1" d="M703,264.7h1s0,11.6,0,11.6h-1c0-2.1-.1-4-.1-5.8s0-3.7.1-5.8h0Z"/>
      </g>
    </g>
  </g>
</svg>