<?xml version="1.0" encoding="UTF-8"?>
<svg id="Layer_2" data-name="Layer 2" xmlns="http://www.w3.org/2000/svg" viewBox="0 0 25.05 19.32">
  <g id="_图层_1" data-name="图层 1">
    <g>
      <path d="M25.05,19.32H0l.09-.56.14-.08C7.09,14.91,12.01,8.39,13.72.79l.18-.79,11.16,19.32ZM1.5,18.69h22.45L14.15,1.71c-1.81,7.08-6.36,13.18-12.65,16.98Z" fill="#808285"/>
      <path d="M25.05,19.32h-2.02l.03-.35c.05-.6.09-1.18.1-1.75l.03-1.13,1.86,3.22ZM23.72,18.69h.23l-.2-.35c0,.12-.02.23-.02.35Z" fill="#808285"/>
      <path d="M20.64,19.32h-3.7l.04-.35c.09-.8.14-1.61.14-2.41,0-4.58-1.44-8.94-4.17-12.61l-.1-.13.05-.16c.32-.94.6-1.9.81-2.86l.18-.79,6.21,10.76v.05c.46,1.88.68,3.82.68,5.76,0,.82-.04,1.65-.12,2.47l-.03.29ZM17.65,18.69h2.41c.06-.71.09-1.42.09-2.12,0-1.88-.22-3.75-.65-5.57L14.15,1.71c-.17.67-.37,1.34-.59,2,2.74,3.75,4.19,8.2,4.19,12.86,0,.7-.03,1.41-.1,2.12Z" fill="#808285"/>
      <path d="M14.74,19.32h-3.14l.06-.37c.12-.79.18-1.59.18-2.39,0-2.46-.55-4.82-1.62-7.01l-.08-.16.09-.15c.51-.81.98-1.65,1.4-2.51l.26-.52.3.5c1.8,2.96,2.75,6.37,2.75,9.86,0,.83-.05,1.66-.16,2.48l-.04.28ZM12.34,18.69h1.84c.08-.7.12-1.42.12-2.12,0-3.17-.82-6.28-2.37-9.03-.33.64-.69,1.28-1.07,1.89,1.07,2.24,1.61,4.64,1.61,7.13,0,.71-.05,1.42-.14,2.12Z" fill="#808285"/>
      <path d="M10.13,19.32h-2.5l.08-.38c.16-.78.24-1.58.24-2.38,0-1.16-.16-2.3-.49-3.4l-.05-.17.12-.13c.47-.53.92-1.08,1.34-1.63l.34-.45.21.53c.65,1.68.98,3.44.98,5.26,0,.83-.07,1.67-.22,2.5l-.05.26ZM8.4,18.69h1.2c.11-.7.16-1.41.16-2.12,0-1.54-.25-3.05-.75-4.49-.29.37-.59.73-.9,1.08.31,1.11.47,2.26.47,3.41,0,.71-.06,1.42-.18,2.12Z" fill="#808285"/>
      <path d="M6.62,19.32h-2.27l.11-.4c.21-.77.32-1.56.32-2.36,0-.26-.01-.53-.04-.81v-.16s.11-.11.11-.11c.46-.39.92-.82,1.36-1.25l.42-.41.11.58c.14.71.21,1.44.21,2.17,0,.85-.1,1.69-.29,2.51l-.06.25ZM5.18,18.69h.94c.14-.7.22-1.41.22-2.12,0-.49-.03-.98-.1-1.46-.28.26-.56.51-.84.76.02.25.03.48.03.71,0,.71-.08,1.43-.24,2.12Z" fill="#808285"/>
      <path d="M3.69,19.32h-1.81l.16-.43c.17-.45.29-.93.36-1.41l.02-.14.12-.08c.37-.25.74-.52,1.11-.8l.52-.4v.66c-.03.82-.16,1.62-.41,2.39l-.07.22ZM2.78,18.69h.44c.12-.43.21-.87.26-1.31-.16.11-.31.22-.47.33-.05.33-.13.66-.23.98Z" fill="#808285"/>
    </g>
  </g>
</svg>