<svg xmlns="http://www.w3.org/2000/svg" width="59.118" height="58.895" viewBox="0 0 59.118 58.895">
  <g id="Layer_1" data-name="Layer 1" transform="translate(0.001 0.001)">
    <g id="g1" transform="translate(-0.001 -0.001)">
      <path id="path1" d="M6.859.173A8.151,8.151,0,0,0,.208,7.205c-.364,3.741,0,7.7,0,11.465V42.059c0,4.3-1.085,10.134,1.681,13.758C4.879,59.73,10.333,58.8,14.653,58.8H48.13a21.012,21.012,0,0,0,4.128-.077,8.149,8.149,0,0,0,6.649-7.032c.364-3.741,0-7.7,0-11.465V16.836c0-4.3,1.085-10.134-1.681-13.758C54.236-.836,48.782.1,44.462.1H10.985A21.012,21.012,0,0,0,6.857.173M27.724,20.962l-1.6,4.356h2.751l-2.293,5.5,2.063.23a7.6,7.6,0,0,1-.993,2.255c-.339.353-.857.267-1.3.267-1,0-3.019.414-3.554-.688-.246-.505.106-1.143.305-1.6A16.392,16.392,0,0,0,24.283,28.3a4.919,4.919,0,0,1-1.6-.077c-1.783-.655.2-3.522.612-4.509.289-.693.632-2.2,1.261-2.637.884-.616,2.227-.189,3.172-.114M9.61,35.408c.63,0,1.567.188,1.949-.458.405-.687.114-2.2.114-2.981V24.4c0-.709-.358-2.875.267-3.325.515-.371,2.675-.292,2.9.344.375,1.042.038,2.789.038,3.9v7.337c0,1.258.217,2.72-.305,3.9-.5,1.123-2.822,2.126-3.974,1.261a5.289,5.289,0,0,1-.993-2.407M44.462,20.962v1.146a10.042,10.042,0,0,1,2.751.077c2.747.838,2.523,3.536,2.523,5.886a5.629,5.629,0,0,1,1.376.077c2.636.658,2.293,3.294,2.293,5.426,0,1.137.213,2.481-.535,3.439-.824,1.056-2.174.917-3.363.917-.369,0-.978.117-1.3-.114a4.315,4.315,0,0,1-.993-2.407c.754,0,2.113.258,2.714-.305.707-.665.418-3.263-.421-3.707a3.686,3.686,0,0,0-1.6-.114H44.463v6.649h-3.21V31.282h-3.21v-3.21h3.21V25.321H39.191v-3.21h2.063V20.965h3.21m-7.339,1.143v3.21H35.29v9.63h2.981v2.981H27.724l1.223-2.865,2.9-.114v-9.63H30.017V22.11h7.107m13.07,3.21a7.276,7.276,0,0,1,.077-2.063c.766-2.474,4.5-.48,2.637,1.567a1.789,1.789,0,0,1-.879.421,7.649,7.649,0,0,1-1.835.077m-40.584,0L8.655,33.8,7.087,36.554,5.711,32.885,6.4,25.318h3.21m10.548,0,.688,7.567-1.376,3.439h-.458c-1.231-1.949-1.387-3.959-1.6-6.191-.155-1.586-.458-3.219-.458-4.814h3.21m24.3,0v2.751h2.063V25.319H44.462m-17.2,9.63-1.146,2.981H21.074l1.223-3.1,1.758.038,3.21.077Z" transform="translate(0.001 0.001)" fill="#ff2842"/>
    </g>
  </g>
</svg>
